<svg xmlns="http://www.w3.org/2000/svg" xmlns:xlink="http://www.w3.org/1999/xlink" width="2560" zoomAndPan="magnify" viewBox="0 0 1920 637.92" height="840" preserveAspectRatio="xMidYMid meet" version="1.0"><defs><g/><clipPath id="bc9aec4b15"><path d="M 213.105469 62.992188 L 1707 62.992188 L 1707 566.929688 L 213.105469 566.929688 Z M 213.105469 62.992188 " clip-rule="nonzero"/></clipPath><clipPath id="255026a733"><path d="M 1678.78125 62.992188 L 241.21875 62.992188 C 241.21875 78.460938 228.707031 91.101562 213.105469 91.101562 L 213.105469 538.816406 C 228.574219 538.816406 241.21875 551.328125 241.21875 566.929688 L 1678.78125 566.929688 C 1678.78125 551.460938 1691.292969 538.816406 1706.894531 538.816406 L 1706.894531 91.101562 C 1691.425781 91.101562 1678.78125 78.59375 1678.78125 62.992188 Z M 1678.78125 62.992188 " clip-rule="nonzero"/></clipPath><clipPath id="a31fffae17"><path d="M 0.105469 0.992188 L 1494 0.992188 L 1494 504.929688 L 0.105469 504.929688 Z M 0.105469 0.992188 " clip-rule="nonzero"/></clipPath><clipPath id="8bbc033e4a"><path d="M 1465.78125 0.992188 L 28.21875 0.992188 C 28.21875 16.460938 15.707031 29.101562 0.105469 29.101562 L 0.105469 476.816406 C 15.574219 476.816406 28.21875 489.328125 28.21875 504.929688 L 1465.78125 504.929688 C 1465.78125 489.460938 1478.292969 476.816406 1493.894531 476.816406 L 1493.894531 29.101562 C 1478.425781 29.101562 1465.78125 16.59375 1465.78125 0.992188 Z M 1465.78125 0.992188 " clip-rule="nonzero"/></clipPath><clipPath id="9b4a03786d"><rect x="0" width="1494" y="0" height="505"/></clipPath></defs><g clip-path="url(#bc9aec4b15)"><g clip-path="url(#255026a733)"><g transform="matrix(1, 0, 0, 1, 213, 62)"><g clip-path="url(#9b4a03786d)"><g clip-path="url(#a31fffae17)"><g clip-path="url(#8bbc033e4a)"><path fill="#2c4a3e" d="M 0.105469 0.992188 L 1494.199219 0.992188 L 1494.199219 504.929688 L 0.105469 504.929688 Z M 0.105469 0.992188 " fill-opacity="1" fill-rule="nonzero"/></g></g></g></g></g></g><g fill="#f4f0e4" fill-opacity="1"><g transform="translate(287.215635, 443.944328)"><g><path d="M 3.15625 -96.59375 C 7.582031 -78.625 14.753906 -62.816406 24.671875 -49.171875 C 34.585938 -35.523438 46.425781 -24.96875 60.1875 -17.5 C 73.957031 -10.03125 88.539062 -6.296875 103.9375 -6.296875 C 110.695312 -6.296875 117.925781 -7.113281 125.625 -8.75 C 133.332031 -10.382812 140.566406 -12.953125 147.328125 -16.453125 C 154.097656 -19.953125 159.753906 -24.675781 164.296875 -30.625 C 168.847656 -36.570312 171.242188 -43.976562 171.484375 -52.84375 C 171.941406 -63.34375 169.019531 -72.734375 162.71875 -81.015625 C 156.425781 -89.296875 148.847656 -95.421875 139.984375 -99.390625 C 130.179688 -104.054688 119.679688 -107.554688 108.484375 -109.890625 C 97.285156 -112.222656 85.96875 -114.613281 74.53125 -117.0625 C 63.101562 -119.507812 52.140625 -122.953125 41.640625 -127.390625 C 35.347656 -130.179688 28.992188 -133.675781 22.578125 -137.875 C 16.160156 -142.082031 10.789062 -147.273438 6.46875 -153.453125 C 2.15625 -159.640625 0 -166.816406 0 -174.984375 C 0 -183.140625 1.976562 -190.539062 5.9375 -197.1875 C 9.90625 -203.84375 14.921875 -209.675781 20.984375 -214.6875 C 27.054688 -219.707031 33.125 -223.734375 39.1875 -226.765625 C 47.820312 -230.960938 56.976562 -234.113281 66.65625 -236.21875 C 76.34375 -238.320312 86.203125 -239.375 96.234375 -239.375 C 114.203125 -239.375 131.703125 -236.570312 148.734375 -230.96875 C 165.765625 -225.363281 180.578125 -217.429688 193.171875 -207.171875 L 180.21875 -173.234375 C 168.5625 -190.253906 157.128906 -203.664062 145.921875 -213.46875 C 134.722656 -223.269531 121.546875 -229.335938 106.390625 -231.671875 C 94.722656 -233.535156 82.878906 -233.125 70.859375 -230.4375 C 58.847656 -227.757812 48.410156 -221.988281 39.546875 -213.125 C 30.910156 -204.019531 27.582031 -194.625 29.5625 -184.9375 C 31.550781 -175.257812 38.613281 -167.15625 50.75 -160.625 C 60.3125 -155.726562 70.804688 -151.9375 82.234375 -149.25 C 93.671875 -146.570312 105.335938 -144.003906 117.234375 -141.546875 C 129.128906 -139.097656 140.328125 -135.832031 150.828125 -131.75 C 161.328125 -127.675781 170.3125 -121.671875 177.78125 -113.734375 C 184.3125 -106.734375 188.742188 -98.273438 191.078125 -88.359375 C 193.410156 -78.441406 193.757812 -68.347656 192.125 -58.078125 C 190.488281 -47.816406 186.875 -38.835938 181.28125 -31.140625 C 175.675781 -23.441406 168.5 -17.316406 159.75 -12.765625 C 151 -8.222656 141.664062 -4.957031 131.75 -2.96875 C 121.84375 -0.988281 111.988281 0 102.1875 0 C 83.050781 0 64.734375 -3.03125 47.234375 -9.09375 C 29.742188 -15.164062 14 -24.382812 0 -36.75 L 0 -96.59375 Z M 3.15625 -96.59375 "/></g></g></g><g fill="#f4f0e4" fill-opacity="1"><g transform="translate(491.23678, 443.944328)"><g><path d="M 0 0 L 0 -3.15625 C 7.46875 -2.914062 13.066406 -5.945312 16.796875 -12.25 C 20.523438 -18.550781 22.390625 -30.914062 22.390625 -49.34375 L 22.390625 -189.671875 C 22.390625 -208.335938 20.523438 -220.878906 16.796875 -227.296875 C 13.066406 -233.710938 7.46875 -236.6875 0 -236.21875 L 0 -239.375 L 180.21875 -239.375 L 194.921875 -186.53125 L 191.78125 -186.53125 C 188.28125 -195.625 182.5625 -203.671875 174.625 -210.671875 C 166.695312 -217.671875 157.890625 -223.148438 148.203125 -227.109375 C 138.523438 -231.078125 128.898438 -233.0625 119.328125 -233.0625 L 55.640625 -233.0625 L 55.640625 -111.640625 C 61.703125 -124.929688 69.75 -133.148438 79.78125 -136.296875 C 89.820312 -139.453125 101.835938 -138.695312 115.828125 -134.03125 C 121.660156 -132.164062 127.550781 -130.238281 133.5 -128.25 C 139.457031 -126.269531 145.175781 -125.804688 150.65625 -126.859375 C 156.132812 -127.910156 161.09375 -131.816406 165.53125 -138.578125 L 168.328125 -137.1875 C 162.492188 -119.914062 154.269531 -109.003906 143.65625 -104.453125 C 133.039062 -99.910156 120.035156 -100.203125 104.640625 -105.328125 C 99.035156 -107.203125 93.257812 -109.070312 87.3125 -110.9375 C 81.363281 -112.800781 75.707031 -113.320312 70.34375 -112.5 C 64.976562 -111.6875 60.078125 -108.132812 55.640625 -101.84375 L 55.640625 -6.296875 L 117.234375 -6.296875 C 128.660156 -6.296875 140.085938 -8.800781 151.515625 -13.8125 C 162.953125 -18.832031 173.28125 -25.597656 182.5 -34.109375 C 191.71875 -42.628906 198.425781 -52.253906 202.625 -62.984375 L 205.421875 -62.984375 L 185.46875 0 Z M 0 0 "/></g></g></g><g fill="#f4f0e4" fill-opacity="1"><g transform="translate(706.456346, 443.944328)"><g><path d="M 134.375 -239.375 L 211.375 -19.59375 C 213.238281 -14.226562 215.800781 -10.03125 219.0625 -7 C 222.332031 -3.96875 227.117188 -2.566406 233.421875 -2.796875 L 233.421875 0 L 162.734375 0 L 162.734375 -2.796875 C 168.796875 -2.566406 173.050781 -3.847656 175.5 -6.640625 C 177.945312 -9.441406 178.238281 -13.757812 176.375 -19.59375 L 152.578125 -87.140625 C 146.515625 -74.304688 138.46875 -66.3125 128.4375 -63.15625 C 118.40625 -60.007812 106.390625 -60.65625 92.390625 -65.09375 C 88.890625 -66.257812 84.75 -67.65625 79.96875 -69.28125 C 75.1875 -70.914062 70.285156 -72.023438 65.265625 -72.609375 C 60.253906 -73.191406 55.707031 -72.609375 51.625 -70.859375 C 47.539062 -69.109375 44.5625 -65.4375 42.6875 -59.84375 L 35.34375 -40.25 C 34.414062 -37.207031 33.953125 -34.34375 33.953125 -31.65625 C 33.953125 -28.976562 34.414062 -26.125 35.34375 -23.09375 C 35.8125 -21.925781 36.273438 -20.640625 36.734375 -19.234375 C 37.203125 -17.835938 37.554688 -16.554688 37.796875 -15.390625 C 39.660156 -10.265625 42.285156 -6.828125 45.671875 -5.078125 C 49.054688 -3.328125 53.546875 -2.566406 59.140625 -2.796875 L 59.140625 0 C 50.503906 0 40.53125 0 29.21875 0 C 17.90625 0 8.164062 0 0 0 L 0 -2.796875 C 5.601562 -2.566406 10.148438 -3.847656 13.640625 -6.640625 C 17.140625 -9.441406 19.707031 -13.296875 21.34375 -18.203125 L 99.03125 -239.375 Z M 150.484375 -94.140625 L 102.53125 -230.265625 L 50.75 -83.640625 C 56.8125 -91.566406 64.273438 -96.289062 73.140625 -97.8125 C 82.003906 -99.332031 92.15625 -98.109375 103.59375 -94.140625 C 108.957031 -92.503906 114.4375 -90.753906 120.03125 -88.890625 C 125.632812 -87.023438 131.0625 -86.265625 136.3125 -86.609375 C 141.5625 -86.960938 146.285156 -89.472656 150.484375 -94.140625 Z M 150.484375 -94.140625 "/></g></g></g><g fill="#f4f0e4" fill-opacity="1"><g transform="translate(950.37185, 443.944328)"><g><path d="M 55.640625 -49.34375 C 55.640625 -30.914062 57.503906 -18.550781 61.234375 -12.25 C 64.972656 -5.945312 70.578125 -2.914062 78.046875 -3.15625 L 78.046875 0 L 0 0 L 0 -3.15625 C 7.46875 -2.914062 13.066406 -5.945312 16.796875 -12.25 C 20.523438 -18.550781 22.390625 -30.914062 22.390625 -49.34375 L 22.390625 -189.671875 C 22.390625 -208.335938 20.523438 -220.878906 16.796875 -227.296875 C 13.066406 -233.710938 7.46875 -236.6875 0 -236.21875 L 0 -239.375 L 130.53125 -239.375 C 140.09375 -239.375 149.65625 -238.03125 159.21875 -235.34375 C 168.789062 -232.65625 176.84375 -228.046875 183.375 -221.515625 C 189.90625 -214.984375 193.171875 -206.003906 193.171875 -194.578125 C 193.171875 -183.140625 189.847656 -173.804688 183.203125 -166.578125 C 176.554688 -159.347656 168.039062 -153.398438 157.65625 -148.734375 C 147.269531 -144.066406 136.597656 -139.75 125.640625 -135.78125 C 135.671875 -134.84375 143.597656 -131.925781 149.421875 -127.03125 C 155.253906 -122.132812 159.457031 -115.835938 162.03125 -108.140625 C 163.664062 -103.234375 165.765625 -96.640625 168.328125 -88.359375 C 170.890625 -80.078125 173.6875 -71.382812 176.71875 -62.28125 C 179.757812 -53.1875 182.910156 -44.847656 186.171875 -37.265625 C 189.441406 -29.679688 192.59375 -24.140625 195.625 -20.640625 C 198.1875 -17.847656 201.273438 -15.691406 204.890625 -14.171875 C 208.515625 -12.648438 212.078125 -13.410156 215.578125 -16.453125 L 218.015625 -14.34375 C 215.679688 -9.21875 212.179688 -5.546875 207.515625 -3.328125 C 202.847656 -1.109375 197.953125 0 192.828125 0 C 184.191406 0 177.191406 -2.039062 171.828125 -6.125 C 166.460938 -10.207031 162.144531 -15.398438 158.875 -21.703125 C 154.675781 -29.398438 151 -38.03125 147.84375 -47.59375 C 144.695312 -57.15625 141.84375 -66.71875 139.28125 -76.28125 C 136.71875 -85.851562 133.914062 -94.601562 130.875 -102.53125 C 127.144531 -113.03125 122.242188 -120.265625 116.171875 -124.234375 C 110.109375 -128.203125 101.710938 -127.617188 90.984375 -122.484375 C 84.453125 -119.453125 77.859375 -115.253906 71.203125 -109.890625 C 64.554688 -104.523438 59.367188 -99.738281 55.640625 -95.53125 Z M 55.640625 -233.0625 L 55.640625 -104.640625 C 60.304688 -109.304688 65.378906 -113.617188 70.859375 -117.578125 C 76.347656 -121.546875 82.125 -125.394531 88.1875 -129.125 C 93.789062 -132.863281 100.613281 -137.003906 108.65625 -141.546875 C 116.707031 -146.097656 124.640625 -151.054688 132.453125 -156.421875 C 140.273438 -161.796875 146.75 -167.75 151.875 -174.28125 C 157.007812 -180.8125 159.578125 -188.039062 159.578125 -195.96875 C 159.804688 -206.46875 157.003906 -214.34375 151.171875 -219.59375 C 145.347656 -224.84375 138.117188 -228.398438 129.484375 -230.265625 C 120.847656 -232.128906 112.445312 -233.0625 104.28125 -233.0625 Z M 55.640625 -233.0625 "/></g></g></g><g fill="#f4f0e4" fill-opacity="1"><g transform="translate(1178.889572, 443.944328)"><g><path d="M 209.96875 -207.171875 L 197.03125 -173.234375 C 184.894531 -191.421875 172.234375 -205.0625 159.046875 -214.15625 C 145.867188 -223.257812 132.6875 -228.628906 119.5 -230.265625 C 106.320312 -231.898438 93.550781 -230.5 81.1875 -226.0625 C 67.882812 -221.164062 57.382812 -213.582031 49.6875 -203.3125 C 41.988281 -193.050781 36.679688 -181.390625 33.765625 -168.328125 C 30.847656 -155.265625 29.914062 -141.90625 30.96875 -128.25 C 32.019531 -114.601562 34.644531 -101.945312 38.84375 -90.28125 C 44.90625 -73.488281 54.351562 -59.203125 67.1875 -47.421875 C 80.019531 -35.640625 94.773438 -27.296875 111.453125 -22.390625 C 128.140625 -17.492188 145.234375 -17.144531 162.734375 -21.34375 C 172.992188 -23.914062 182.613281 -28.113281 191.59375 -33.9375 C 200.582031 -39.769531 208.34375 -47.351562 214.875 -56.6875 L 217.328125 -54.9375 C 207.054688 -36.507812 193.226562 -22.742188 175.84375 -13.640625 C 158.46875 -4.546875 140.097656 0 120.734375 0 C 103.703125 0 87.835938 -2.972656 73.140625 -8.921875 C 58.441406 -14.867188 45.609375 -23.265625 34.640625 -34.109375 C 23.679688 -44.960938 15.164062 -57.679688 9.09375 -72.265625 C 3.03125 -86.847656 0 -102.65625 0 -119.6875 C 0 -136.476562 3.144531 -152.109375 9.4375 -166.578125 C 15.738281 -181.046875 24.429688 -193.757812 35.515625 -204.71875 C 46.597656 -215.6875 59.429688 -224.203125 74.015625 -230.265625 C 88.597656 -236.335938 104.171875 -239.375 120.734375 -239.375 C 137.066406 -239.375 153.101562 -236.570312 168.84375 -230.96875 C 184.59375 -225.363281 198.300781 -217.429688 209.96875 -207.171875 Z M 209.96875 -207.171875 "/></g></g></g><g fill="#f4f0e4" fill-opacity="1"><g transform="translate(1406.357404, 443.944328)"><g><path d="M 78.046875 -239.375 L 78.046875 -236.21875 C 70.578125 -236.6875 64.972656 -233.710938 61.234375 -227.296875 C 57.503906 -220.878906 55.640625 -208.335938 55.640625 -189.671875 L 55.640625 -111.984375 C 61.703125 -125.046875 69.457031 -133.148438 78.90625 -136.296875 C 88.363281 -139.453125 99.738281 -138.695312 113.03125 -134.03125 C 118.394531 -132.164062 123.875 -130.300781 129.46875 -128.4375 C 135.070312 -126.570312 140.441406 -126.046875 145.578125 -126.859375 C 150.710938 -127.671875 155.378906 -130.992188 159.578125 -136.828125 L 159.578125 -189.671875 C 159.578125 -208.335938 157.707031 -220.878906 153.96875 -227.296875 C 150.238281 -233.710938 144.644531 -236.6875 137.1875 -236.21875 L 137.1875 -239.375 L 215.578125 -239.375 L 215.578125 -236.21875 C 207.867188 -236.6875 202.148438 -233.710938 198.421875 -227.296875 C 194.691406 -220.878906 192.828125 -208.335938 192.828125 -189.671875 L 192.828125 -49.34375 C 192.828125 -30.914062 194.691406 -18.550781 198.421875 -12.25 C 202.148438 -5.945312 207.867188 -2.914062 215.578125 -3.15625 L 215.578125 0 L 137.1875 0 L 137.1875 -3.15625 C 144.644531 -2.914062 150.238281 -5.945312 153.96875 -12.25 C 157.707031 -18.550781 159.578125 -30.914062 159.578125 -49.34375 L 159.578125 -127.390625 C 153.742188 -114.316406 146.046875 -106.207031 136.484375 -103.0625 C 126.921875 -99.914062 115.488281 -100.671875 102.1875 -105.328125 C 96.820312 -107.203125 91.335938 -109.070312 85.734375 -110.9375 C 80.140625 -112.800781 74.773438 -113.320312 69.640625 -112.5 C 64.503906 -111.6875 59.835938 -108.25 55.640625 -102.1875 L 55.640625 -49.34375 C 55.640625 -30.914062 57.503906 -18.550781 61.234375 -12.25 C 64.972656 -5.945312 70.578125 -2.914062 78.046875 -3.15625 L 78.046875 0 L 0 0 L 0 -3.15625 C 7.46875 -2.914062 13.066406 -5.945312 16.796875 -12.25 C 20.523438 -18.550781 22.390625 -30.914062 22.390625 -49.34375 L 22.390625 -189.671875 C 22.390625 -208.335938 20.523438 -220.878906 16.796875 -227.296875 C 13.066406 -233.710938 7.46875 -236.6875 0 -236.21875 L 0 -239.375 Z M 78.046875 -239.375 "/></g></g></g></svg>