<svg xmlns="http://www.w3.org/2000/svg" xmlns:xlink="http://www.w3.org/1999/xlink" width="2560" zoomAndPan="magnify" viewBox="0 0 1920 629.999998" height="840" preserveAspectRatio="xMidYMid meet" version="1.0"><defs><g/></defs><g fill="#2c4a3e" fill-opacity="1"><g transform="translate(156.795332, 382.886955)"><g><path d="M 125.453125 -29.046875 L 125.453125 -129.78125 L 79.921875 0 L 58.921875 0 L 16.890625 -120.71875 L 16.890625 -29.046875 C 16.890625 -18.191406 17.988281 -10.910156 20.1875 -7.203125 C 22.382812 -3.492188 25.679688 -1.710938 30.078125 -1.859375 L 30.078125 0 L 0 0 L 0 -1.859375 C 4.394531 -1.710938 7.691406 -3.492188 9.890625 -7.203125 C 12.085938 -10.910156 13.1875 -18.191406 13.1875 -29.046875 L 13.1875 -111.65625 C 13.1875 -122.632812 12.085938 -130.015625 9.890625 -133.796875 C 7.691406 -137.578125 4.394531 -139.328125 0 -139.046875 L 0 -140.90625 L 30.6875 -140.90625 L 77.875 -5.15625 L 125.453125 -140.90625 L 158.203125 -140.90625 L 158.203125 -139.046875 C 153.804688 -139.328125 150.507812 -137.578125 148.3125 -133.796875 C 146.125 -130.015625 145.03125 -122.632812 145.03125 -111.65625 L 145.03125 -29.046875 C 145.03125 -18.191406 146.125 -10.910156 148.3125 -7.203125 C 150.507812 -3.492188 153.804688 -1.710938 158.203125 -1.859375 L 158.203125 0 L 112.265625 0 L 112.265625 -1.859375 C 116.660156 -1.710938 119.957031 -3.492188 122.15625 -7.203125 C 124.351562 -10.910156 125.453125 -18.191406 125.453125 -29.046875 Z M 125.453125 -29.046875 "/></g></g></g><g fill="#2c4a3e" fill-opacity="1"><g transform="translate(320.979063, 382.886955)"><g><path d="M 36.25 -128.953125 L 63.03125 -80.75 L 91.875 -123.390625 C 93.382812 -125.585938 93.660156 -127.785156 92.703125 -129.984375 C 92.566406 -130.253906 92.460938 -130.5625 92.390625 -130.90625 C 92.316406 -131.25 92.210938 -131.5625 92.078125 -131.84375 C 91.117188 -134.863281 89.644531 -136.851562 87.65625 -137.8125 C 85.664062 -138.769531 83.085938 -139.179688 79.921875 -139.046875 L 79.921875 -140.90625 L 114.953125 -140.90625 L 114.953125 -139.046875 C 110.828125 -139.179688 107.53125 -137.804688 105.0625 -134.921875 C 102.59375 -132.046875 100.328125 -129.097656 98.265625 -126.078125 L 67.15625 -80.546875 L 67.15625 -29.046875 C 67.15625 -18.191406 68.253906 -10.910156 70.453125 -7.203125 C 72.648438 -3.492188 76.015625 -1.710938 80.546875 -1.859375 L 80.546875 0 L 34.40625 0 L 34.40625 -1.859375 C 38.800781 -1.710938 42.097656 -3.492188 44.296875 -7.203125 C 46.492188 -10.910156 47.59375 -18.191406 47.59375 -29.046875 L 47.59375 -67.984375 L 15.65625 -125.859375 C 13.875 -129.296875 11.914062 -132.421875 9.78125 -135.234375 C 7.65625 -138.054688 4.394531 -139.328125 0 -139.046875 L 0 -140.90625 L 41.203125 -140.90625 L 41.203125 -139.046875 C 37.765625 -139.179688 35.664062 -138.253906 34.90625 -136.265625 C 34.15625 -134.273438 34.601562 -131.835938 36.25 -128.953125 Z M 36.25 -128.953125 "/></g></g></g><g fill="#2c4a3e" fill-opacity="1"><g transform="translate(441.696327, 382.886955)"><g/></g></g><g fill="#2c4a3e" fill-opacity="1"><g transform="translate(502.05496, 382.886955)"><g><path d="M 125.453125 -29.046875 L 125.453125 -129.78125 L 79.921875 0 L 58.921875 0 L 16.890625 -120.71875 L 16.890625 -29.046875 C 16.890625 -18.191406 17.988281 -10.910156 20.1875 -7.203125 C 22.382812 -3.492188 25.679688 -1.710938 30.078125 -1.859375 L 30.078125 0 L 0 0 L 0 -1.859375 C 4.394531 -1.710938 7.691406 -3.492188 9.890625 -7.203125 C 12.085938 -10.910156 13.1875 -18.191406 13.1875 -29.046875 L 13.1875 -111.65625 C 13.1875 -122.632812 12.085938 -130.015625 9.890625 -133.796875 C 7.691406 -137.578125 4.394531 -139.328125 0 -139.046875 L 0 -140.90625 L 30.6875 -140.90625 L 77.875 -5.15625 L 125.453125 -140.90625 L 158.203125 -140.90625 L 158.203125 -139.046875 C 153.804688 -139.328125 150.507812 -137.578125 148.3125 -133.796875 C 146.125 -130.015625 145.03125 -122.632812 145.03125 -111.65625 L 145.03125 -29.046875 C 145.03125 -18.191406 146.125 -10.910156 148.3125 -7.203125 C 150.507812 -3.492188 153.804688 -1.710938 158.203125 -1.859375 L 158.203125 0 L 112.265625 0 L 112.265625 -1.859375 C 116.660156 -1.710938 119.957031 -3.492188 122.15625 -7.203125 C 124.351562 -10.910156 125.453125 -18.191406 125.453125 -29.046875 Z M 125.453125 -29.046875 "/></g></g></g><g fill="#2c4a3e" fill-opacity="1"><g transform="translate(666.238667, 382.886955)"><g><path d="M 70.453125 -140.90625 C 60.703125 -140.90625 51.566406 -139.082031 43.046875 -135.4375 C 34.535156 -131.800781 27.050781 -126.753906 20.59375 -120.296875 C 14.144531 -113.847656 9.097656 -106.363281 5.453125 -97.84375 C 1.816406 -89.332031 0 -80.203125 0 -70.453125 C 0 -60.703125 1.816406 -51.566406 5.453125 -43.046875 C 9.097656 -34.535156 14.144531 -27.050781 20.59375 -20.59375 C 27.050781 -14.144531 34.535156 -9.097656 43.046875 -5.453125 C 51.566406 -1.816406 60.703125 0 70.453125 0 C 80.203125 0 89.332031 -1.816406 97.84375 -5.453125 C 106.363281 -9.097656 113.847656 -14.144531 120.296875 -20.59375 C 126.753906 -27.050781 131.800781 -34.535156 135.4375 -43.046875 C 139.082031 -51.566406 140.90625 -60.703125 140.90625 -70.453125 C 140.90625 -80.203125 139.082031 -89.332031 135.4375 -97.84375 C 131.800781 -106.363281 126.753906 -113.847656 120.296875 -120.296875 C 113.847656 -126.753906 106.363281 -131.800781 97.84375 -135.4375 C 89.332031 -139.082031 80.203125 -140.90625 70.453125 -140.90625 Z M 47.796875 -133.078125 C 54.390625 -135.410156 61.117188 -135.992188 67.984375 -134.828125 C 74.847656 -133.660156 81.503906 -130.984375 87.953125 -126.796875 C 94.410156 -122.609375 100.25 -117.179688 105.46875 -110.515625 C 110.6875 -103.859375 114.875 -96.203125 118.03125 -87.546875 C 121.195312 -78.898438 122.914062 -70.351562 123.1875 -61.90625 C 123.457031 -53.457031 122.425781 -45.554688 120.09375 -38.203125 C 117.757812 -30.859375 114.328125 -24.507812 109.796875 -19.15625 C 105.265625 -13.800781 99.703125 -9.957031 93.109375 -7.625 C 86.515625 -5.289062 79.75 -4.707031 72.8125 -5.875 C 65.882812 -7.039062 59.226562 -9.71875 52.84375 -13.90625 C 46.457031 -18.09375 40.65625 -23.515625 35.4375 -30.171875 C 30.21875 -36.835938 26.023438 -44.492188 22.859375 -53.140625 C 19.703125 -61.796875 17.984375 -70.378906 17.703125 -78.890625 C 17.429688 -87.410156 18.429688 -95.304688 20.703125 -102.578125 C 22.972656 -109.859375 26.40625 -116.175781 31 -121.53125 C 35.601562 -126.894531 41.203125 -130.742188 47.796875 -133.078125 Z M 47.796875 -133.078125 "/></g></g></g><g fill="#2c4a3e" fill-opacity="1"><g transform="translate(813.530208, 382.886955)"><g><path d="M 70.453125 -140.90625 C 60.703125 -140.90625 51.566406 -139.082031 43.046875 -135.4375 C 34.535156 -131.800781 27.050781 -126.753906 20.59375 -120.296875 C 14.144531 -113.847656 9.097656 -106.363281 5.453125 -97.84375 C 1.816406 -89.332031 0 -80.203125 0 -70.453125 C 0 -60.703125 1.816406 -51.566406 5.453125 -43.046875 C 9.097656 -34.535156 14.144531 -27.050781 20.59375 -20.59375 C 27.050781 -14.144531 34.535156 -9.097656 43.046875 -5.453125 C 51.566406 -1.816406 60.703125 0 70.453125 0 C 80.203125 0 89.332031 -1.816406 97.84375 -5.453125 C 106.363281 -9.097656 113.847656 -14.144531 120.296875 -20.59375 C 126.753906 -27.050781 131.800781 -34.535156 135.4375 -43.046875 C 139.082031 -51.566406 140.90625 -60.703125 140.90625 -70.453125 C 140.90625 -80.203125 139.082031 -89.332031 135.4375 -97.84375 C 131.800781 -106.363281 126.753906 -113.847656 120.296875 -120.296875 C 113.847656 -126.753906 106.363281 -131.800781 97.84375 -135.4375 C 89.332031 -139.082031 80.203125 -140.90625 70.453125 -140.90625 Z M 47.796875 -133.078125 C 54.390625 -135.410156 61.117188 -135.992188 67.984375 -134.828125 C 74.847656 -133.660156 81.503906 -130.984375 87.953125 -126.796875 C 94.410156 -122.609375 100.25 -117.179688 105.46875 -110.515625 C 110.6875 -103.859375 114.875 -96.203125 118.03125 -87.546875 C 121.195312 -78.898438 122.914062 -70.351562 123.1875 -61.90625 C 123.457031 -53.457031 122.425781 -45.554688 120.09375 -38.203125 C 117.757812 -30.859375 114.328125 -24.507812 109.796875 -19.15625 C 105.265625 -13.800781 99.703125 -9.957031 93.109375 -7.625 C 86.515625 -5.289062 79.75 -4.707031 72.8125 -5.875 C 65.882812 -7.039062 59.226562 -9.71875 52.84375 -13.90625 C 46.457031 -18.09375 40.65625 -23.515625 35.4375 -30.171875 C 30.21875 -36.835938 26.023438 -44.492188 22.859375 -53.140625 C 19.703125 -61.796875 17.984375 -70.378906 17.703125 -78.890625 C 17.429688 -87.410156 18.429688 -95.304688 20.703125 -102.578125 C 22.972656 -109.859375 26.40625 -116.175781 31 -121.53125 C 35.601562 -126.894531 41.203125 -130.742188 47.796875 -133.078125 Z M 47.796875 -133.078125 "/></g></g></g><g fill="#2c4a3e" fill-opacity="1"><g transform="translate(960.821749, 382.886955)"><g><path d="M 0 0 L 0 -1.859375 C 4.394531 -1.710938 7.691406 -3.492188 9.890625 -7.203125 C 12.085938 -10.910156 13.1875 -18.191406 13.1875 -29.046875 L 13.1875 -111.65625 C 13.1875 -122.632812 12.085938 -130.015625 9.890625 -133.796875 C 7.691406 -137.578125 4.394531 -139.328125 0 -139.046875 L 0 -140.90625 L 53.5625 -140.90625 C 61.800781 -140.90625 69.9375 -140.078125 77.96875 -138.421875 C 86 -136.773438 93.273438 -133.582031 99.796875 -128.84375 C 106.328125 -124.113281 111.515625 -117.113281 115.359375 -107.84375 C 119.203125 -98.570312 121.125 -86.382812 121.125 -71.28125 C 121.125 -56.164062 119.203125 -43.9375 115.359375 -34.59375 C 111.515625 -25.257812 106.363281 -18.085938 99.90625 -13.078125 C 93.457031 -8.066406 86.210938 -4.632812 78.171875 -2.78125 C 70.140625 -0.925781 61.9375 0 53.5625 0 Z M 32.75 -137.203125 L 32.75 -3.703125 L 59.328125 -3.703125 C 68.804688 -3.703125 76.664062 -6.617188 82.90625 -12.453125 C 89.15625 -18.296875 93.828125 -26.332031 96.921875 -36.5625 C 100.015625 -46.789062 101.5625 -58.363281 101.5625 -71.28125 C 101.5625 -84.320312 99.976562 -95.785156 96.8125 -105.671875 C 93.65625 -115.566406 88.953125 -123.296875 82.703125 -128.859375 C 76.460938 -134.421875 68.671875 -137.203125 59.328125 -137.203125 Z M 32.75 -137.203125 "/></g></g></g><g fill="#2c4a3e" fill-opacity="1"><g transform="translate(1088.337036, 382.886955)"><g><path d="M 0 0 L 0 -1.859375 C 4.394531 -1.710938 7.691406 -3.492188 9.890625 -7.203125 C 12.085938 -10.910156 13.1875 -18.191406 13.1875 -29.046875 L 13.1875 -111.65625 C 13.1875 -122.632812 12.085938 -130.015625 9.890625 -133.796875 C 7.691406 -137.578125 4.394531 -139.328125 0 -139.046875 L 0 -140.90625 L 76.84375 -140.90625 C 82.46875 -140.90625 88.09375 -140.113281 93.71875 -138.53125 C 99.351562 -136.957031 104.09375 -134.242188 107.9375 -130.390625 C 111.789062 -126.546875 113.71875 -121.257812 113.71875 -114.53125 C 113.71875 -107.664062 112.035156 -101.828125 108.671875 -97.015625 C 105.304688 -92.210938 101.015625 -88.195312 95.796875 -84.96875 C 90.578125 -81.75 85.082031 -78.898438 79.3125 -76.421875 C 86.175781 -76.285156 92.351562 -74.601562 97.84375 -71.375 C 103.34375 -68.144531 107.671875 -63.679688 110.828125 -57.984375 C 113.984375 -52.285156 115.5625 -45.59375 115.5625 -37.90625 C 115.5625 -26.226562 111.988281 -16.988281 104.84375 -10.1875 C 97.707031 -3.394531 88.375 0 76.84375 0 Z M 32.75 -49.640625 L 32.75 -3.703125 L 64.890625 -3.703125 C 70.796875 -3.703125 75.84375 -4.972656 80.03125 -7.515625 C 84.21875 -10.054688 87.613281 -13.382812 90.21875 -17.5 C 92.832031 -21.625 94.550781 -26.125 95.375 -31 C 96.195312 -35.875 96.128906 -40.644531 95.171875 -45.3125 C 94.078125 -51.632812 91.675781 -56.785156 87.96875 -60.765625 C 84.257812 -64.753906 79.796875 -67.332031 74.578125 -68.5 C 69.359375 -69.664062 63.796875 -69.21875 57.890625 -67.15625 C 53.492188 -65.644531 48.957031 -63.238281 44.28125 -59.9375 C 39.613281 -56.644531 35.769531 -53.210938 32.75 -49.640625 Z M 32.75 -137.203125 L 32.75 -55.203125 C 38.101562 -60.554688 44.554688 -65.460938 52.109375 -69.921875 C 59.671875 -74.390625 66.816406 -79.03125 73.546875 -83.84375 C 78.898438 -87.820312 83.632812 -92.28125 87.75 -97.21875 C 91.875 -102.164062 93.9375 -108.210938 93.9375 -115.359375 C 93.9375 -121.265625 92.21875 -125.757812 88.78125 -128.84375 C 85.351562 -131.9375 81.128906 -134.101562 76.109375 -135.34375 C 71.097656 -136.582031 66.191406 -137.203125 61.390625 -137.203125 Z M 32.75 -137.203125 "/></g></g></g><g fill="#2c4a3e" fill-opacity="1"><g transform="translate(1210.2904, 382.886955)"><g><path d="M 70.453125 -140.90625 C 60.703125 -140.90625 51.566406 -139.082031 43.046875 -135.4375 C 34.535156 -131.800781 27.050781 -126.753906 20.59375 -120.296875 C 14.144531 -113.847656 9.097656 -106.363281 5.453125 -97.84375 C 1.816406 -89.332031 0 -80.203125 0 -70.453125 C 0 -60.703125 1.816406 -51.566406 5.453125 -43.046875 C 9.097656 -34.535156 14.144531 -27.050781 20.59375 -20.59375 C 27.050781 -14.144531 34.535156 -9.097656 43.046875 -5.453125 C 51.566406 -1.816406 60.703125 0 70.453125 0 C 80.203125 0 89.332031 -1.816406 97.84375 -5.453125 C 106.363281 -9.097656 113.847656 -14.144531 120.296875 -20.59375 C 126.753906 -27.050781 131.800781 -34.535156 135.4375 -43.046875 C 139.082031 -51.566406 140.90625 -60.703125 140.90625 -70.453125 C 140.90625 -80.203125 139.082031 -89.332031 135.4375 -97.84375 C 131.800781 -106.363281 126.753906 -113.847656 120.296875 -120.296875 C 113.847656 -126.753906 106.363281 -131.800781 97.84375 -135.4375 C 89.332031 -139.082031 80.203125 -140.90625 70.453125 -140.90625 Z M 47.796875 -133.078125 C 54.390625 -135.410156 61.117188 -135.992188 67.984375 -134.828125 C 74.847656 -133.660156 81.503906 -130.984375 87.953125 -126.796875 C 94.410156 -122.609375 100.25 -117.179688 105.46875 -110.515625 C 110.6875 -103.859375 114.875 -96.203125 118.03125 -87.546875 C 121.195312 -78.898438 122.914062 -70.351562 123.1875 -61.90625 C 123.457031 -53.457031 122.425781 -45.554688 120.09375 -38.203125 C 117.757812 -30.859375 114.328125 -24.507812 109.796875 -19.15625 C 105.265625 -13.800781 99.703125 -9.957031 93.109375 -7.625 C 86.515625 -5.289062 79.75 -4.707031 72.8125 -5.875 C 65.882812 -7.039062 59.226562 -9.71875 52.84375 -13.90625 C 46.457031 -18.09375 40.65625 -23.515625 35.4375 -30.171875 C 30.21875 -36.835938 26.023438 -44.492188 22.859375 -53.140625 C 19.703125 -61.796875 17.984375 -70.378906 17.703125 -78.890625 C 17.429688 -87.410156 18.429688 -95.304688 20.703125 -102.578125 C 22.972656 -109.859375 26.40625 -116.175781 31 -121.53125 C 35.601562 -126.894531 41.203125 -130.742188 47.796875 -133.078125 Z M 47.796875 -133.078125 "/></g></g></g><g fill="#2c4a3e" fill-opacity="1"><g transform="translate(1357.581896, 382.886955)"><g><path d="M 79.109375 -140.90625 L 124.421875 -11.53125 C 125.523438 -8.375 127.035156 -5.898438 128.953125 -4.109375 C 130.878906 -2.328125 133.695312 -1.503906 137.40625 -1.640625 L 137.40625 0 L 95.796875 0 L 95.796875 -1.640625 C 99.359375 -1.503906 101.859375 -2.257812 103.296875 -3.90625 C 104.742188 -5.5625 104.921875 -8.101562 103.828125 -11.53125 L 89.8125 -51.296875 C 86.238281 -43.742188 81.5 -39.039062 75.59375 -37.1875 C 69.695312 -35.332031 62.628906 -35.707031 54.390625 -38.3125 C 52.328125 -39 49.882812 -39.820312 47.0625 -40.78125 C 44.25 -41.75 41.363281 -42.40625 38.40625 -42.75 C 35.457031 -43.09375 32.78125 -42.75 30.375 -41.71875 C 27.976562 -40.6875 26.226562 -38.519531 25.125 -35.21875 L 20.8125 -23.6875 C 20.257812 -21.90625 19.984375 -20.222656 19.984375 -18.640625 C 19.984375 -17.066406 20.257812 -15.382812 20.8125 -13.59375 C 21.082031 -12.90625 21.351562 -12.148438 21.625 -11.328125 C 21.90625 -10.503906 22.113281 -9.75 22.25 -9.0625 C 23.34375 -6.039062 24.882812 -4.015625 26.875 -2.984375 C 28.875 -1.953125 31.519531 -1.503906 34.8125 -1.640625 L 34.8125 0 C 29.726562 0 23.851562 0 17.1875 0 C 10.53125 0 4.800781 0 0 0 L 0 -1.640625 C 3.289062 -1.503906 5.96875 -2.257812 8.03125 -3.90625 C 10.09375 -5.5625 11.601562 -7.832031 12.5625 -10.71875 L 58.296875 -140.90625 Z M 88.578125 -55.40625 L 60.359375 -135.546875 L 29.875 -49.234375 C 33.4375 -53.898438 37.828125 -56.679688 43.046875 -57.578125 C 48.265625 -58.472656 54.238281 -57.75 60.96875 -55.40625 C 64.132812 -54.445312 67.363281 -53.414062 70.65625 -52.3125 C 73.957031 -51.21875 77.148438 -50.773438 80.234375 -50.984375 C 83.328125 -51.191406 86.109375 -52.664062 88.578125 -55.40625 Z M 88.578125 -55.40625 "/></g></g></g><g fill="#2c4a3e" fill-opacity="1"><g transform="translate(1501.165415, 382.886955)"><g><path d="M 32.75 -29.046875 C 32.75 -18.191406 33.847656 -10.910156 36.046875 -7.203125 C 38.242188 -3.492188 41.539062 -1.710938 45.9375 -1.859375 L 45.9375 0 L 0 0 L 0 -1.859375 C 4.394531 -1.710938 7.691406 -3.492188 9.890625 -7.203125 C 12.085938 -10.910156 13.1875 -18.191406 13.1875 -29.046875 L 13.1875 -111.65625 C 13.1875 -122.632812 12.085938 -130.015625 9.890625 -133.796875 C 7.691406 -137.578125 4.394531 -139.328125 0 -139.046875 L 0 -140.90625 L 76.84375 -140.90625 C 82.46875 -140.90625 88.09375 -140.113281 93.71875 -138.53125 C 99.351562 -136.957031 104.09375 -134.242188 107.9375 -130.390625 C 111.789062 -126.546875 113.71875 -121.257812 113.71875 -114.53125 C 113.71875 -107.800781 111.757812 -102.304688 107.84375 -98.046875 C 103.925781 -93.796875 98.910156 -90.296875 92.796875 -87.546875 C 86.691406 -84.804688 80.410156 -82.265625 73.953125 -79.921875 C 79.859375 -79.378906 84.523438 -77.664062 87.953125 -74.78125 C 91.390625 -71.894531 93.863281 -68.1875 95.375 -63.65625 C 96.332031 -60.769531 97.566406 -56.890625 99.078125 -52.015625 C 100.597656 -47.140625 102.25 -42.023438 104.03125 -36.671875 C 105.8125 -31.316406 107.660156 -26.40625 109.578125 -21.9375 C 111.503906 -17.476562 113.363281 -14.21875 115.15625 -12.15625 C 116.664062 -10.507812 118.484375 -9.238281 120.609375 -8.34375 C 122.742188 -7.445312 124.835938 -7.894531 126.890625 -9.6875 L 128.34375 -8.453125 C 126.96875 -5.421875 124.90625 -3.253906 122.15625 -1.953125 C 119.40625 -0.648438 116.519531 0 113.5 0 C 108.425781 0 104.304688 -1.195312 101.140625 -3.59375 C 97.984375 -6 95.445312 -9.054688 93.53125 -12.765625 C 91.050781 -17.296875 88.882812 -22.378906 87.03125 -28.015625 C 85.175781 -33.648438 83.492188 -39.28125 81.984375 -44.90625 C 80.472656 -50.539062 78.828125 -55.691406 77.046875 -60.359375 C 74.847656 -66.535156 71.960938 -70.789062 68.390625 -73.125 C 64.816406 -75.457031 59.875 -75.113281 53.5625 -72.09375 C 49.71875 -70.3125 45.835938 -67.84375 41.921875 -64.6875 C 38.003906 -61.53125 34.945312 -58.710938 32.75 -56.234375 Z M 32.75 -137.203125 L 32.75 -61.59375 C 35.5 -64.34375 38.488281 -66.882812 41.71875 -69.21875 C 44.945312 -71.550781 48.34375 -73.816406 51.90625 -76.015625 C 55.207031 -78.210938 59.222656 -80.648438 63.953125 -83.328125 C 68.691406 -86.003906 73.363281 -88.921875 77.96875 -92.078125 C 82.570312 -95.234375 86.382812 -98.734375 89.40625 -102.578125 C 92.425781 -106.429688 93.9375 -110.691406 93.9375 -115.359375 C 94.070312 -121.535156 92.421875 -126.171875 88.984375 -129.265625 C 85.554688 -132.359375 81.300781 -134.453125 76.21875 -135.546875 C 71.132812 -136.648438 66.191406 -137.203125 61.390625 -137.203125 Z M 32.75 -137.203125 "/></g></g></g><g fill="#2c4a3e" fill-opacity="1"><g transform="translate(1635.684756, 382.886955)"><g><path d="M 0 0 L 0 -1.859375 C 4.394531 -1.710938 7.691406 -3.492188 9.890625 -7.203125 C 12.085938 -10.910156 13.1875 -18.191406 13.1875 -29.046875 L 13.1875 -111.65625 C 13.1875 -122.632812 12.085938 -130.015625 9.890625 -133.796875 C 7.691406 -137.578125 4.394531 -139.328125 0 -139.046875 L 0 -140.90625 L 53.5625 -140.90625 C 61.800781 -140.90625 69.9375 -140.078125 77.96875 -138.421875 C 86 -136.773438 93.273438 -133.582031 99.796875 -128.84375 C 106.328125 -124.113281 111.515625 -117.113281 115.359375 -107.84375 C 119.203125 -98.570312 121.125 -86.382812 121.125 -71.28125 C 121.125 -56.164062 119.203125 -43.9375 115.359375 -34.59375 C 111.515625 -25.257812 106.363281 -18.085938 99.90625 -13.078125 C 93.457031 -8.066406 86.210938 -4.632812 78.171875 -2.78125 C 70.140625 -0.925781 61.9375 0 53.5625 0 Z M 32.75 -137.203125 L 32.75 -3.703125 L 59.328125 -3.703125 C 68.804688 -3.703125 76.664062 -6.617188 82.90625 -12.453125 C 89.15625 -18.296875 93.828125 -26.332031 96.921875 -36.5625 C 100.015625 -46.789062 101.5625 -58.363281 101.5625 -71.28125 C 101.5625 -84.320312 99.976562 -95.785156 96.8125 -105.671875 C 93.65625 -115.566406 88.953125 -123.296875 82.703125 -128.859375 C 76.460938 -134.421875 68.671875 -137.203125 59.328125 -137.203125 Z M 32.75 -137.203125 "/></g></g></g></svg>