<svg xmlns="http://www.w3.org/2000/svg" xmlns:xlink="http://www.w3.org/1999/xlink" width="2560" zoomAndPan="magnify" viewBox="0 0 1920 637.92" height="840" preserveAspectRatio="xMidYMid meet" version="1.0"><defs><g/><clipPath id="bddbde807a"><path d="M 314.046875 62.992188 L 1606 62.992188 L 1606 566.929688 L 314.046875 566.929688 Z M 314.046875 62.992188 " clip-rule="nonzero"/></clipPath><clipPath id="d9b45be1e6"><path d="M 1577.84375 62.992188 L 342.15625 62.992188 C 342.15625 78.460938 329.648438 91.101562 314.046875 91.101562 L 314.046875 538.816406 C 329.511719 538.816406 342.15625 551.328125 342.15625 566.929688 L 1577.84375 566.929688 C 1577.84375 551.460938 1590.351562 538.816406 1605.953125 538.816406 L 1605.953125 91.101562 C 1590.488281 91.101562 1577.84375 78.59375 1577.84375 62.992188 Z M 1577.84375 62.992188 " clip-rule="nonzero"/></clipPath><clipPath id="3242726f6c"><path d="M 0.046875 0.992188 L 1292 0.992188 L 1292 504.929688 L 0.046875 504.929688 Z M 0.046875 0.992188 " clip-rule="nonzero"/></clipPath><clipPath id="b350a72d1a"><path d="M 1263.84375 0.992188 L 28.15625 0.992188 C 28.15625 16.460938 15.648438 29.101562 0.046875 29.101562 L 0.046875 476.816406 C 15.511719 476.816406 28.15625 489.328125 28.15625 504.929688 L 1263.84375 504.929688 C 1263.84375 489.460938 1276.351562 476.816406 1291.953125 476.816406 L 1291.953125 29.101562 C 1276.488281 29.101562 1263.84375 16.59375 1263.84375 0.992188 Z M 1263.84375 0.992188 " clip-rule="nonzero"/></clipPath><clipPath id="656663fd6b"><rect x="0" width="1292" y="0" height="505"/></clipPath></defs><g clip-path="url(#bddbde807a)"><g clip-path="url(#d9b45be1e6)"><g transform="matrix(1, 0, 0, 1, 314, 62)"><g clip-path="url(#656663fd6b)"><g clip-path="url(#3242726f6c)"><g clip-path="url(#b350a72d1a)"><path fill="#2c4a3e" d="M 0.046875 0.992188 L 1291.382812 0.992188 L 1291.382812 504.929688 L 0.046875 504.929688 Z M 0.046875 0.992188 " fill-opacity="1" fill-rule="nonzero"/></g></g></g></g></g></g><g fill="#f4f0e4" fill-opacity="1"><g transform="translate(413.19983, 443.944284)"><g><path d="M 0 0 L 0 -3.15625 C 7.46875 -2.914062 13.066406 -5.945312 16.796875 -12.25 C 20.523438 -18.550781 22.390625 -30.914062 22.390625 -49.34375 L 22.390625 -189.671875 C 22.390625 -208.335938 20.523438 -220.878906 16.796875 -227.296875 C 13.066406 -233.710938 7.46875 -236.6875 0 -236.21875 L 0 -239.375 L 180.21875 -239.375 L 194.921875 -186.53125 L 191.78125 -186.53125 C 188.28125 -195.625 182.5625 -203.671875 174.625 -210.671875 C 166.695312 -217.671875 157.890625 -223.148438 148.203125 -227.109375 C 138.523438 -231.078125 128.898438 -233.0625 119.328125 -233.0625 L 55.640625 -233.0625 L 55.640625 -111.640625 C 61.703125 -124.929688 69.75 -133.148438 79.78125 -136.296875 C 89.820312 -139.453125 101.835938 -138.695312 115.828125 -134.03125 C 121.660156 -132.164062 127.550781 -130.238281 133.5 -128.25 C 139.457031 -126.269531 145.175781 -125.804688 150.65625 -126.859375 C 156.132812 -127.910156 161.09375 -131.816406 165.53125 -138.578125 L 168.328125 -137.1875 C 162.492188 -119.914062 154.269531 -109.003906 143.65625 -104.453125 C 133.039062 -99.910156 120.035156 -100.203125 104.640625 -105.328125 C 99.035156 -107.203125 93.257812 -109.070312 87.3125 -110.9375 C 81.363281 -112.800781 75.707031 -113.320312 70.34375 -112.5 C 64.976562 -111.6875 60.078125 -108.132812 55.640625 -101.84375 L 55.640625 -6.296875 L 117.234375 -6.296875 C 128.660156 -6.296875 140.085938 -8.800781 151.515625 -13.8125 C 162.953125 -18.832031 173.28125 -25.597656 182.5 -34.109375 C 191.71875 -42.628906 198.425781 -52.253906 202.625 -62.984375 L 205.421875 -62.984375 L 185.46875 0 Z M 0 0 "/></g></g></g><g fill="#f4f0e4" fill-opacity="1"><g transform="translate(628.419418, 443.944284)"><g><path d="M 189.671875 -189.671875 L 189.671875 0 L 178.46875 0 C 171.007812 -28.695312 159.460938 -55.9375 143.828125 -81.71875 C 128.203125 -107.5 110.414062 -131.9375 90.46875 -155.03125 C 70.519531 -178.125 49.929688 -199.585938 28.703125 -219.421875 L 28.703125 -49.34375 C 28.703125 -30.914062 30.566406 -18.550781 34.296875 -12.25 C 38.023438 -5.945312 43.625 -2.914062 51.09375 -3.15625 L 51.09375 0 L 0 0 L 0 -3.15625 C 7.46875 -2.914062 13.066406 -5.945312 16.796875 -12.25 C 20.523438 -18.550781 22.390625 -30.914062 22.390625 -49.34375 L 22.390625 -189.671875 C 22.390625 -208.335938 20.523438 -220.878906 16.796875 -227.296875 C 13.066406 -233.710938 7.46875 -236.6875 0 -236.21875 L 0 -239.375 L 51.796875 -239.375 C 69.054688 -223.039062 85.96875 -205.832031 102.53125 -187.75 C 119.101562 -169.664062 134.445312 -151.054688 148.5625 -131.921875 C 162.675781 -112.796875 174.394531 -93.316406 183.71875 -73.484375 L 183.71875 -189.671875 C 183.71875 -208.335938 181.851562 -220.878906 178.125 -227.296875 C 174.394531 -233.710938 168.679688 -236.6875 160.984375 -236.21875 L 160.984375 -239.375 L 212.421875 -239.375 L 212.421875 -236.21875 C 204.722656 -236.6875 199.003906 -233.710938 195.265625 -227.296875 C 191.535156 -220.878906 189.671875 -208.335938 189.671875 -189.671875 Z M 189.671875 -189.671875 "/></g></g></g><g fill="#f4f0e4" fill-opacity="1"><g transform="translate(850.987987, 443.944284)"><g><path d="M 117.578125 -49.34375 C 117.578125 -30.914062 119.441406 -18.550781 123.171875 -12.25 C 126.910156 -5.945312 132.515625 -2.914062 139.984375 -3.15625 L 139.984375 0 L 61.9375 0 L 61.9375 -3.15625 C 69.40625 -2.914062 75.003906 -5.945312 78.734375 -12.25 C 82.472656 -18.550781 84.34375 -30.914062 84.34375 -49.34375 L 84.34375 -233.0625 L 75.234375 -233.0625 C 65.898438 -233.0625 56.332031 -231.078125 46.53125 -227.109375 C 36.738281 -223.148438 27.9375 -217.671875 20.125 -210.671875 C 12.3125 -203.671875 6.65625 -195.625 3.15625 -186.53125 L 0 -186.53125 L 14.34375 -239.375 L 187.21875 -239.375 L 201.921875 -186.53125 L 198.765625 -186.53125 C 195.273438 -195.625 189.5625 -203.671875 181.625 -210.671875 C 173.695312 -217.671875 164.890625 -223.148438 155.203125 -227.109375 C 145.523438 -231.078125 135.898438 -233.0625 126.328125 -233.0625 L 117.578125 -233.0625 Z M 117.578125 -49.34375 "/></g></g></g><g fill="#f4f0e4" fill-opacity="1"><g transform="translate(1063.057986, 443.944284)"><g><path d="M 0 0 L 0 -3.15625 C 7.46875 -2.914062 13.066406 -5.945312 16.796875 -12.25 C 20.523438 -18.550781 22.390625 -30.914062 22.390625 -49.34375 L 22.390625 -189.671875 C 22.390625 -208.335938 20.523438 -220.878906 16.796875 -227.296875 C 13.066406 -233.710938 7.46875 -236.6875 0 -236.21875 L 0 -239.375 L 180.21875 -239.375 L 194.921875 -186.53125 L 191.78125 -186.53125 C 188.28125 -195.625 182.5625 -203.671875 174.625 -210.671875 C 166.695312 -217.671875 157.890625 -223.148438 148.203125 -227.109375 C 138.523438 -231.078125 128.898438 -233.0625 119.328125 -233.0625 L 55.640625 -233.0625 L 55.640625 -111.640625 C 61.703125 -124.929688 69.75 -133.148438 79.78125 -136.296875 C 89.820312 -139.453125 101.835938 -138.695312 115.828125 -134.03125 C 121.660156 -132.164062 127.550781 -130.238281 133.5 -128.25 C 139.457031 -126.269531 145.175781 -125.804688 150.65625 -126.859375 C 156.132812 -127.910156 161.09375 -131.816406 165.53125 -138.578125 L 168.328125 -137.1875 C 162.492188 -119.914062 154.269531 -109.003906 143.65625 -104.453125 C 133.039062 -99.910156 120.035156 -100.203125 104.640625 -105.328125 C 99.035156 -107.203125 93.257812 -109.070312 87.3125 -110.9375 C 81.363281 -112.800781 75.707031 -113.320312 70.34375 -112.5 C 64.976562 -111.6875 60.078125 -108.132812 55.640625 -101.84375 L 55.640625 -6.296875 L 117.234375 -6.296875 C 128.660156 -6.296875 140.085938 -8.800781 151.515625 -13.8125 C 162.953125 -18.832031 173.28125 -25.597656 182.5 -34.109375 C 191.71875 -42.628906 198.425781 -52.253906 202.625 -62.984375 L 205.421875 -62.984375 L 185.46875 0 Z M 0 0 "/></g></g></g><g fill="#f4f0e4" fill-opacity="1"><g transform="translate(1278.277552, 443.944284)"><g><path d="M 55.640625 -49.34375 C 55.640625 -30.914062 57.503906 -18.550781 61.234375 -12.25 C 64.972656 -5.945312 70.578125 -2.914062 78.046875 -3.15625 L 78.046875 0 L 0 0 L 0 -3.15625 C 7.46875 -2.914062 13.066406 -5.945312 16.796875 -12.25 C 20.523438 -18.550781 22.390625 -30.914062 22.390625 -49.34375 L 22.390625 -189.671875 C 22.390625 -208.335938 20.523438 -220.878906 16.796875 -227.296875 C 13.066406 -233.710938 7.46875 -236.6875 0 -236.21875 L 0 -239.375 L 130.53125 -239.375 C 140.09375 -239.375 149.65625 -238.03125 159.21875 -235.34375 C 168.789062 -232.65625 176.84375 -228.046875 183.375 -221.515625 C 189.90625 -214.984375 193.171875 -206.003906 193.171875 -194.578125 C 193.171875 -183.140625 189.847656 -173.804688 183.203125 -166.578125 C 176.554688 -159.347656 168.039062 -153.398438 157.65625 -148.734375 C 147.269531 -144.066406 136.597656 -139.75 125.640625 -135.78125 C 135.671875 -134.84375 143.597656 -131.925781 149.421875 -127.03125 C 155.253906 -122.132812 159.457031 -115.835938 162.03125 -108.140625 C 163.664062 -103.234375 165.765625 -96.640625 168.328125 -88.359375 C 170.890625 -80.078125 173.6875 -71.382812 176.71875 -62.28125 C 179.757812 -53.1875 182.910156 -44.847656 186.171875 -37.265625 C 189.441406 -29.679688 192.59375 -24.140625 195.625 -20.640625 C 198.1875 -17.847656 201.273438 -15.691406 204.890625 -14.171875 C 208.515625 -12.648438 212.078125 -13.410156 215.578125 -16.453125 L 218.015625 -14.34375 C 215.679688 -9.21875 212.179688 -5.546875 207.515625 -3.328125 C 202.847656 -1.109375 197.953125 0 192.828125 0 C 184.191406 0 177.191406 -2.039062 171.828125 -6.125 C 166.460938 -10.207031 162.144531 -15.398438 158.875 -21.703125 C 154.675781 -29.398438 151 -38.03125 147.84375 -47.59375 C 144.695312 -57.15625 141.84375 -66.71875 139.28125 -76.28125 C 136.71875 -85.851562 133.914062 -94.601562 130.875 -102.53125 C 127.144531 -113.03125 122.242188 -120.265625 116.171875 -124.234375 C 110.109375 -128.203125 101.710938 -127.617188 90.984375 -122.484375 C 84.453125 -119.453125 77.859375 -115.253906 71.203125 -109.890625 C 64.554688 -104.523438 59.367188 -99.738281 55.640625 -95.53125 Z M 55.640625 -233.0625 L 55.640625 -104.640625 C 60.304688 -109.304688 65.378906 -113.617188 70.859375 -117.578125 C 76.347656 -121.546875 82.125 -125.394531 88.1875 -129.125 C 93.789062 -132.863281 100.613281 -137.003906 108.65625 -141.546875 C 116.707031 -146.097656 124.640625 -151.054688 132.453125 -156.421875 C 140.273438 -161.796875 146.75 -167.75 151.875 -174.28125 C 157.007812 -180.8125 159.578125 -188.039062 159.578125 -195.96875 C 159.804688 -206.46875 157.003906 -214.34375 151.171875 -219.59375 C 145.347656 -224.84375 138.117188 -228.398438 129.484375 -230.265625 C 120.847656 -232.128906 112.445312 -233.0625 104.28125 -233.0625 Z M 55.640625 -233.0625 "/></g></g></g></svg>