<svg xmlns="http://www.w3.org/2000/svg" xmlns:xlink="http://www.w3.org/1999/xlink" width="2560" zoomAndPan="magnify" viewBox="0 0 1920 637.92" height="840" preserveAspectRatio="xMidYMid meet" version="1.0"><defs><g/><clipPath id="aaa59224af"><path d="M 213.105469 62.992188 L 1707 62.992188 L 1707 566.929688 L 213.105469 566.929688 Z M 213.105469 62.992188 " clip-rule="nonzero"/></clipPath><clipPath id="d369a07179"><path d="M 1678.78125 62.992188 L 241.21875 62.992188 C 241.21875 78.460938 228.707031 91.101562 213.105469 91.101562 L 213.105469 538.816406 C 228.574219 538.816406 241.21875 551.328125 241.21875 566.929688 L 1678.78125 566.929688 C 1678.78125 551.460938 1691.292969 538.816406 1706.894531 538.816406 L 1706.894531 91.101562 C 1691.425781 91.101562 1678.78125 78.59375 1678.78125 62.992188 Z M 1678.78125 62.992188 " clip-rule="nonzero"/></clipPath><clipPath id="9d41c5e0a7"><path d="M 0.105469 0.992188 L 1494 0.992188 L 1494 504.929688 L 0.105469 504.929688 Z M 0.105469 0.992188 " clip-rule="nonzero"/></clipPath><clipPath id="43eb193abb"><path d="M 1465.78125 0.992188 L 28.21875 0.992188 C 28.21875 16.460938 15.707031 29.101562 0.105469 29.101562 L 0.105469 476.816406 C 15.574219 476.816406 28.21875 489.328125 28.21875 504.929688 L 1465.78125 504.929688 C 1465.78125 489.460938 1478.292969 476.816406 1493.894531 476.816406 L 1493.894531 29.101562 C 1478.425781 29.101562 1465.78125 16.59375 1465.78125 0.992188 Z M 1465.78125 0.992188 " clip-rule="nonzero"/></clipPath><clipPath id="58f5bd236d"><rect x="0" width="1494" y="0" height="505"/></clipPath></defs><g clip-path="url(#aaa59224af)"><g clip-path="url(#d369a07179)"><g transform="matrix(1, 0, 0, 1, 213, 62)"><g clip-path="url(#58f5bd236d)"><g clip-path="url(#9d41c5e0a7)"><g clip-path="url(#43eb193abb)"><path fill="#2c4a3e" d="M 0.105469 0.992188 L 1494.199219 0.992188 L 1494.199219 504.929688 L 0.105469 504.929688 Z M 0.105469 0.992188 " fill-opacity="1" fill-rule="nonzero"/></g></g></g></g></g></g><g fill="#f4f0e4" fill-opacity="1"><g transform="translate(394.124098, 443.944284)"><g><path d="M 134.375 -239.375 L 211.375 -19.59375 C 213.238281 -14.226562 215.800781 -10.03125 219.0625 -7 C 222.332031 -3.96875 227.117188 -2.566406 233.421875 -2.796875 L 233.421875 0 L 162.734375 0 L 162.734375 -2.796875 C 168.796875 -2.566406 173.050781 -3.847656 175.5 -6.640625 C 177.945312 -9.441406 178.238281 -13.757812 176.375 -19.59375 L 152.578125 -87.140625 C 146.515625 -74.304688 138.46875 -66.3125 128.4375 -63.15625 C 118.40625 -60.007812 106.390625 -60.65625 92.390625 -65.09375 C 88.890625 -66.257812 84.75 -67.65625 79.96875 -69.28125 C 75.1875 -70.914062 70.285156 -72.023438 65.265625 -72.609375 C 60.253906 -73.191406 55.707031 -72.609375 51.625 -70.859375 C 47.539062 -69.109375 44.5625 -65.4375 42.6875 -59.84375 L 35.34375 -40.25 C 34.414062 -37.207031 33.953125 -34.34375 33.953125 -31.65625 C 33.953125 -28.976562 34.414062 -26.125 35.34375 -23.09375 C 35.8125 -21.925781 36.273438 -20.640625 36.734375 -19.234375 C 37.203125 -17.835938 37.554688 -16.554688 37.796875 -15.390625 C 39.660156 -10.265625 42.285156 -6.828125 45.671875 -5.078125 C 49.054688 -3.328125 53.546875 -2.566406 59.140625 -2.796875 L 59.140625 0 C 50.503906 0 40.53125 0 29.21875 0 C 17.90625 0 8.164062 0 0 0 L 0 -2.796875 C 5.601562 -2.566406 10.148438 -3.847656 13.640625 -6.640625 C 17.140625 -9.441406 19.707031 -13.296875 21.34375 -18.203125 L 99.03125 -239.375 Z M 150.484375 -94.140625 L 102.53125 -230.265625 L 50.75 -83.640625 C 56.8125 -91.566406 64.273438 -96.289062 73.140625 -97.8125 C 82.003906 -99.332031 92.15625 -98.109375 103.59375 -94.140625 C 108.957031 -92.503906 114.4375 -90.753906 120.03125 -88.890625 C 125.632812 -87.023438 131.0625 -86.265625 136.3125 -86.609375 C 141.5625 -86.960938 146.285156 -89.472656 150.484375 -94.140625 Z M 150.484375 -94.140625 "/></g></g></g><g fill="#f4f0e4" fill-opacity="1"><g transform="translate(638.039602, 443.944284)"><g><path d="M 0 0 L 0 -3.15625 C 7.46875 -2.914062 13.066406 -5.945312 16.796875 -12.25 C 20.523438 -18.550781 22.390625 -30.914062 22.390625 -49.34375 L 22.390625 -189.671875 C 22.390625 -208.335938 20.523438 -220.878906 16.796875 -227.296875 C 13.066406 -233.710938 7.46875 -236.6875 0 -236.21875 L 0 -239.375 L 130.53125 -239.375 C 140.09375 -239.375 149.65625 -238.03125 159.21875 -235.34375 C 168.789062 -232.65625 176.84375 -228.046875 183.375 -221.515625 C 189.90625 -214.984375 193.171875 -206.003906 193.171875 -194.578125 C 193.171875 -182.910156 190.3125 -172.992188 184.59375 -164.828125 C 178.882812 -156.660156 171.597656 -149.832031 162.734375 -144.34375 C 153.867188 -138.863281 144.535156 -134.023438 134.734375 -129.828125 C 146.398438 -129.597656 156.894531 -126.738281 166.21875 -121.25 C 175.550781 -115.769531 182.898438 -108.1875 188.265625 -98.5 C 193.640625 -88.820312 196.328125 -77.453125 196.328125 -64.390625 C 196.328125 -44.554688 190.257812 -28.863281 178.125 -17.3125 C 165.988281 -5.769531 150.125 0 130.53125 0 Z M 55.640625 -84.34375 L 55.640625 -6.296875 L 110.234375 -6.296875 C 120.265625 -6.296875 128.835938 -8.453125 135.953125 -12.765625 C 143.066406 -17.085938 148.835938 -22.75 153.265625 -29.75 C 157.703125 -36.75 160.617188 -44.390625 162.015625 -52.671875 C 163.421875 -60.953125 163.304688 -69.054688 161.671875 -76.984375 C 159.804688 -87.722656 155.722656 -96.472656 149.421875 -103.234375 C 143.128906 -110.003906 135.550781 -114.378906 126.6875 -116.359375 C 117.820312 -118.335938 108.375 -117.578125 98.34375 -114.078125 C 90.875 -111.515625 83.171875 -107.429688 75.234375 -101.828125 C 67.304688 -96.234375 60.773438 -90.40625 55.640625 -84.34375 Z M 55.640625 -233.0625 L 55.640625 -93.78125 C 64.742188 -102.882812 75.707031 -111.226562 88.53125 -118.8125 C 101.363281 -126.394531 113.5 -134.269531 124.9375 -142.4375 C 134.03125 -149.195312 142.078125 -156.773438 149.078125 -165.171875 C 156.078125 -173.578125 159.578125 -183.84375 159.578125 -195.96875 C 159.578125 -206 156.660156 -213.640625 150.828125 -218.890625 C 144.992188 -224.140625 137.816406 -227.8125 129.296875 -229.90625 C 120.785156 -232.007812 112.445312 -233.0625 104.28125 -233.0625 Z M 55.640625 -233.0625 "/></g></g></g><g fill="#f4f0e4" fill-opacity="1"><g transform="translate(845.210315, 443.944284)"><g><path d="M 119.6875 -239.375 C 103.125 -239.375 87.609375 -236.28125 73.140625 -230.09375 C 58.671875 -223.914062 45.953125 -215.34375 34.984375 -204.375 C 24.023438 -193.40625 15.453125 -180.6875 9.265625 -166.21875 C 3.085938 -151.757812 0 -136.25 0 -119.6875 C 0 -103.125 3.085938 -87.609375 9.265625 -73.140625 C 15.453125 -58.671875 24.023438 -45.953125 34.984375 -34.984375 C 45.953125 -24.023438 58.671875 -15.453125 73.140625 -9.265625 C 87.609375 -3.085938 103.125 0 119.6875 0 C 136.25 0 151.757812 -3.085938 166.21875 -9.265625 C 180.6875 -15.453125 193.40625 -24.023438 204.375 -34.984375 C 215.34375 -45.953125 223.914062 -58.671875 230.09375 -73.140625 C 236.28125 -87.609375 239.375 -103.125 239.375 -119.6875 C 239.375 -136.25 236.28125 -151.757812 230.09375 -166.21875 C 223.914062 -180.6875 215.34375 -193.40625 204.375 -204.375 C 193.40625 -215.34375 180.6875 -223.914062 166.21875 -230.09375 C 151.757812 -236.28125 136.25 -239.375 119.6875 -239.375 Z M 81.1875 -226.0625 C 92.382812 -230.03125 103.816406 -231.019531 115.484375 -229.03125 C 127.148438 -227.050781 138.460938 -222.503906 149.421875 -215.390625 C 160.390625 -208.273438 170.304688 -199.0625 179.171875 -187.75 C 188.035156 -176.4375 195.148438 -163.429688 200.515625 -148.734375 C 205.890625 -134.035156 208.804688 -119.507812 209.265625 -105.15625 C 209.734375 -90.8125 207.984375 -77.394531 204.015625 -64.90625 C 200.054688 -52.425781 194.226562 -41.632812 186.53125 -32.53125 C 178.832031 -23.4375 169.378906 -16.910156 158.171875 -12.953125 C 146.972656 -8.984375 135.484375 -7.988281 123.703125 -9.96875 C 111.921875 -11.957031 100.601562 -16.507812 89.75 -23.625 C 78.90625 -30.738281 69.050781 -39.953125 60.1875 -51.265625 C 51.320312 -62.578125 44.207031 -75.582031 38.84375 -90.28125 C 33.476562 -104.976562 30.5625 -119.5625 30.09375 -134.03125 C 29.625 -148.5 31.3125 -161.914062 35.15625 -174.28125 C 39.007812 -186.644531 44.84375 -197.375 52.65625 -206.46875 C 60.476562 -215.570312 69.988281 -222.101562 81.1875 -226.0625 Z M 81.1875 -226.0625 "/></g></g></g><g fill="#f4f0e4" fill-opacity="1"><g transform="translate(1095.424915, 443.944284)"><g><path d="M 207.515625 -239.375 L 207.515625 -236.21875 C 200.054688 -236.6875 194.457031 -233.710938 190.71875 -227.296875 C 186.988281 -220.878906 185.125 -208.335938 185.125 -189.671875 L 185.125 -103.59375 C 185.125 -87.019531 184.070312 -72.898438 181.96875 -61.234375 C 178.238281 -40.710938 169.609375 -25.375 156.078125 -15.21875 C 142.546875 -5.070312 125.398438 0 104.640625 0 C 83.410156 0 65.617188 -4.894531 51.265625 -14.6875 C 36.921875 -24.488281 28.113281 -40.707031 24.84375 -63.34375 C 23.445312 -72.90625 22.6875 -83.75 22.5625 -95.875 C 22.445312 -108.007812 22.390625 -118.742188 22.390625 -128.078125 L 22.390625 -189.671875 C 22.390625 -208.335938 20.523438 -220.878906 16.796875 -227.296875 C 13.066406 -233.710938 7.46875 -236.6875 0 -236.21875 L 0 -239.375 L 78.046875 -239.375 L 78.046875 -236.21875 C 70.578125 -236.6875 64.972656 -233.710938 61.234375 -227.296875 C 57.503906 -220.878906 55.640625 -208.335938 55.640625 -189.671875 L 55.640625 -121.4375 C 55.640625 -112.101562 55.753906 -102.941406 55.984375 -93.953125 C 56.222656 -84.972656 56.8125 -75.703125 57.75 -66.140625 C 59.613281 -50.742188 64.914062 -37.96875 73.65625 -27.8125 C 82.40625 -17.664062 95.296875 -12.59375 112.328125 -12.59375 C 126.097656 -12.832031 138.347656 -16.453125 149.078125 -23.453125 C 159.804688 -30.453125 167.390625 -40.484375 171.828125 -53.546875 C 174.628906 -61.003906 176.492188 -69.164062 177.421875 -78.03125 C 178.359375 -86.90625 178.828125 -96.003906 178.828125 -105.328125 L 178.828125 -189.671875 C 178.828125 -208.335938 176.957031 -220.878906 173.21875 -227.296875 C 169.488281 -233.710938 163.890625 -236.6875 156.421875 -236.21875 L 156.421875 -239.375 Z M 207.515625 -239.375 "/></g></g></g><g fill="#f4f0e4" fill-opacity="1"><g transform="translate(1313.794004, 443.944284)"><g><path d="M 117.578125 -49.34375 C 117.578125 -30.914062 119.441406 -18.550781 123.171875 -12.25 C 126.910156 -5.945312 132.515625 -2.914062 139.984375 -3.15625 L 139.984375 0 L 61.9375 0 L 61.9375 -3.15625 C 69.40625 -2.914062 75.003906 -5.945312 78.734375 -12.25 C 82.472656 -18.550781 84.34375 -30.914062 84.34375 -49.34375 L 84.34375 -233.0625 L 75.234375 -233.0625 C 65.898438 -233.0625 56.332031 -231.078125 46.53125 -227.109375 C 36.738281 -223.148438 27.9375 -217.671875 20.125 -210.671875 C 12.3125 -203.671875 6.65625 -195.625 3.15625 -186.53125 L 0 -186.53125 L 14.34375 -239.375 L 187.21875 -239.375 L 201.921875 -186.53125 L 198.765625 -186.53125 C 195.273438 -195.625 189.5625 -203.671875 181.625 -210.671875 C 173.695312 -217.671875 164.890625 -223.148438 155.203125 -227.109375 C 145.523438 -231.078125 135.898438 -233.0625 126.328125 -233.0625 L 117.578125 -233.0625 Z M 117.578125 -49.34375 "/></g></g></g></svg>