<svg xmlns="http://www.w3.org/2000/svg" xmlns:xlink="http://www.w3.org/1999/xlink" width="2560" zoomAndPan="magnify" viewBox="0 0 1920 637.92" height="840" preserveAspectRatio="xMidYMid meet" version="1.0"><defs><g/><clipPath id="4e65c0aa5e"><path d="M 85.636719 62.992188 L 1837 62.992188 L 1837 566.929688 L 85.636719 566.929688 Z M 85.636719 62.992188 " clip-rule="nonzero"/></clipPath><clipPath id="a605f3c2f6"><path d="M 1808.023438 62.992188 L 113.746094 62.992188 C 113.746094 78.460938 101.238281 91.101562 85.636719 91.101562 L 85.636719 538.816406 C 101.101562 538.816406 113.746094 551.328125 113.746094 566.929688 L 1808.023438 566.929688 C 1808.023438 551.460938 1820.53125 538.816406 1836.132812 538.816406 L 1836.132812 91.101562 C 1820.664062 91.101562 1808.023438 78.59375 1808.023438 62.992188 Z M 1808.023438 62.992188 " clip-rule="nonzero"/></clipPath><clipPath id="c67a436706"><path d="M 0.636719 0.992188 L 1751 0.992188 L 1751 504.929688 L 0.636719 504.929688 Z M 0.636719 0.992188 " clip-rule="nonzero"/></clipPath><clipPath id="d1fd17974d"><path d="M 1723.023438 0.992188 L 28.746094 0.992188 C 28.746094 16.460938 16.238281 29.101562 0.636719 29.101562 L 0.636719 476.816406 C 16.101562 476.816406 28.746094 489.328125 28.746094 504.929688 L 1723.023438 504.929688 C 1723.023438 489.460938 1735.53125 476.816406 1751.132812 476.816406 L 1751.132812 29.101562 C 1735.664062 29.101562 1723.023438 16.59375 1723.023438 0.992188 Z M 1723.023438 0.992188 " clip-rule="nonzero"/></clipPath><clipPath id="9e84a7eff3"><rect x="0" width="1752" y="0" height="505"/></clipPath></defs><g clip-path="url(#4e65c0aa5e)"><g clip-path="url(#a605f3c2f6)"><g transform="matrix(1, 0, 0, 1, 85, 62)"><g clip-path="url(#9e84a7eff3)"><g clip-path="url(#c67a436706)"><g clip-path="url(#d1fd17974d)"><path fill="#2c4a3e" d="M 0.636719 0.992188 L 1750.632812 0.992188 L 1750.632812 504.929688 L 0.636719 504.929688 Z M 0.636719 0.992188 " fill-opacity="1" fill-rule="nonzero"/></g></g></g></g></g></g><g fill="#f4f0e4" fill-opacity="1"><g transform="translate(156.896046, 382.838888)"><g><path d="M 125.4375 -29.046875 L 125.4375 -129.765625 L 79.921875 0 L 58.90625 0 L 16.890625 -120.703125 L 16.890625 -29.046875 C 16.890625 -18.191406 17.988281 -10.910156 20.1875 -7.203125 C 22.382812 -3.492188 25.679688 -1.710938 30.078125 -1.859375 L 30.078125 0 L 0 0 L 0 -1.859375 C 4.394531 -1.710938 7.691406 -3.492188 9.890625 -7.203125 C 12.085938 -10.910156 13.1875 -18.191406 13.1875 -29.046875 L 13.1875 -111.640625 C 13.1875 -122.628906 12.085938 -130.007812 9.890625 -133.78125 C 7.691406 -137.5625 4.394531 -139.316406 0 -139.046875 L 0 -140.890625 L 30.6875 -140.890625 L 77.859375 -5.15625 L 125.4375 -140.890625 L 158.203125 -140.890625 L 158.203125 -139.046875 C 153.804688 -139.316406 150.507812 -137.5625 148.3125 -133.78125 C 146.113281 -130.007812 145.015625 -122.628906 145.015625 -111.640625 L 145.015625 -29.046875 C 145.015625 -18.191406 146.113281 -10.910156 148.3125 -7.203125 C 150.507812 -3.492188 153.804688 -1.710938 158.203125 -1.859375 L 158.203125 0 L 112.265625 0 L 112.265625 -1.859375 C 116.660156 -1.710938 119.953125 -3.492188 122.140625 -7.203125 C 124.335938 -10.910156 125.4375 -18.191406 125.4375 -29.046875 Z M 125.4375 -29.046875 "/></g></g></g><g fill="#f4f0e4" fill-opacity="1"><g transform="translate(321.059189, 382.838888)"><g><path d="M 36.25 -128.953125 L 63.03125 -80.75 L 91.875 -123.390625 C 93.382812 -125.585938 93.65625 -127.78125 92.6875 -129.96875 C 92.550781 -130.25 92.445312 -130.5625 92.375 -130.90625 C 92.3125 -131.25 92.210938 -131.554688 92.078125 -131.828125 C 91.117188 -134.847656 89.640625 -136.835938 87.640625 -137.796875 C 85.648438 -138.765625 83.078125 -139.179688 79.921875 -139.046875 L 79.921875 -140.890625 L 114.9375 -140.890625 L 114.9375 -139.046875 C 110.820312 -139.179688 107.523438 -137.804688 105.046875 -134.921875 C 102.578125 -132.035156 100.3125 -129.082031 98.25 -126.0625 L 67.15625 -80.546875 L 67.15625 -29.046875 C 67.15625 -18.191406 68.253906 -10.910156 70.453125 -7.203125 C 72.648438 -3.492188 76.015625 -1.710938 80.546875 -1.859375 L 80.546875 0 L 34.40625 0 L 34.40625 -1.859375 C 38.789062 -1.710938 42.082031 -3.492188 44.28125 -7.203125 C 46.476562 -10.910156 47.578125 -18.191406 47.578125 -29.046875 L 47.578125 -67.96875 L 15.65625 -125.859375 C 13.875 -129.285156 11.914062 -132.40625 9.78125 -135.21875 C 7.65625 -138.039062 4.394531 -139.316406 0 -139.046875 L 0 -140.890625 L 41.203125 -140.890625 L 41.203125 -139.046875 C 37.765625 -139.179688 35.664062 -138.25 34.90625 -136.25 C 34.15625 -134.257812 34.601562 -131.828125 36.25 -128.953125 Z M 36.25 -128.953125 "/></g></g></g><g fill="#f4f0e4" fill-opacity="1"><g transform="translate(441.761317, 382.838888)"><g/></g></g><g fill="#f4f0e4" fill-opacity="1"><g transform="translate(502.112381, 382.838888)"><g><path d="M 125.4375 -29.046875 L 125.4375 -129.765625 L 79.921875 0 L 58.90625 0 L 16.890625 -120.703125 L 16.890625 -29.046875 C 16.890625 -18.191406 17.988281 -10.910156 20.1875 -7.203125 C 22.382812 -3.492188 25.679688 -1.710938 30.078125 -1.859375 L 30.078125 0 L 0 0 L 0 -1.859375 C 4.394531 -1.710938 7.691406 -3.492188 9.890625 -7.203125 C 12.085938 -10.910156 13.1875 -18.191406 13.1875 -29.046875 L 13.1875 -111.640625 C 13.1875 -122.628906 12.085938 -130.007812 9.890625 -133.78125 C 7.691406 -137.5625 4.394531 -139.316406 0 -139.046875 L 0 -140.890625 L 30.6875 -140.890625 L 77.859375 -5.15625 L 125.4375 -140.890625 L 158.203125 -140.890625 L 158.203125 -139.046875 C 153.804688 -139.316406 150.507812 -137.5625 148.3125 -133.78125 C 146.113281 -130.007812 145.015625 -122.628906 145.015625 -111.640625 L 145.015625 -29.046875 C 145.015625 -18.191406 146.113281 -10.910156 148.3125 -7.203125 C 150.507812 -3.492188 153.804688 -1.710938 158.203125 -1.859375 L 158.203125 0 L 112.265625 0 L 112.265625 -1.859375 C 116.660156 -1.710938 119.953125 -3.492188 122.140625 -7.203125 C 124.335938 -10.910156 125.4375 -18.191406 125.4375 -29.046875 Z M 125.4375 -29.046875 "/></g></g></g><g fill="#f4f0e4" fill-opacity="1"><g transform="translate(666.275502, 382.838888)"><g><path d="M 70.453125 -140.890625 C 60.703125 -140.890625 51.566406 -139.066406 43.046875 -135.421875 C 34.535156 -131.785156 27.050781 -126.738281 20.59375 -120.28125 C 14.144531 -113.832031 9.097656 -106.351562 5.453125 -97.84375 C 1.816406 -89.332031 0 -80.203125 0 -70.453125 C 0 -60.703125 1.816406 -51.566406 5.453125 -43.046875 C 9.097656 -34.535156 14.144531 -27.050781 20.59375 -20.59375 C 27.050781 -14.144531 34.535156 -9.097656 43.046875 -5.453125 C 51.566406 -1.816406 60.703125 0 70.453125 0 C 80.203125 0 89.332031 -1.816406 97.84375 -5.453125 C 106.351562 -9.097656 113.832031 -14.144531 120.28125 -20.59375 C 126.738281 -27.050781 131.785156 -34.535156 135.421875 -43.046875 C 139.066406 -51.566406 140.890625 -60.703125 140.890625 -70.453125 C 140.890625 -80.203125 139.066406 -89.332031 135.421875 -97.84375 C 131.785156 -106.351562 126.738281 -113.832031 120.28125 -120.28125 C 113.832031 -126.738281 106.351562 -131.785156 97.84375 -135.421875 C 89.332031 -139.066406 80.203125 -140.890625 70.453125 -140.890625 Z M 47.78125 -133.0625 C 54.375 -135.394531 61.101562 -135.976562 67.96875 -134.8125 C 74.84375 -133.644531 81.503906 -130.96875 87.953125 -126.78125 C 94.410156 -122.59375 100.25 -117.164062 105.46875 -110.5 C 110.6875 -103.84375 114.875 -96.191406 118.03125 -87.546875 C 121.1875 -78.890625 122.898438 -70.335938 123.171875 -61.890625 C 123.453125 -53.453125 122.425781 -45.554688 120.09375 -38.203125 C 117.757812 -30.859375 114.320312 -24.507812 109.78125 -19.15625 C 105.25 -13.800781 99.691406 -9.957031 93.109375 -7.625 C 86.515625 -5.289062 79.75 -4.707031 72.8125 -5.875 C 65.875 -7.039062 59.210938 -9.71875 52.828125 -13.90625 C 46.441406 -18.09375 40.640625 -23.515625 35.421875 -30.171875 C 30.210938 -36.835938 26.023438 -44.492188 22.859375 -53.140625 C 19.703125 -61.796875 17.984375 -70.378906 17.703125 -78.890625 C 17.429688 -87.398438 18.425781 -95.296875 20.6875 -102.578125 C 22.957031 -109.859375 26.394531 -116.175781 31 -121.53125 C 35.601562 -126.882812 41.195312 -130.726562 47.78125 -133.0625 Z M 47.78125 -133.0625 "/></g></g></g><g fill="#f4f0e4" fill-opacity="1"><g transform="translate(813.548574, 382.838888)"><g><path d="M 70.453125 -140.890625 C 60.703125 -140.890625 51.566406 -139.066406 43.046875 -135.421875 C 34.535156 -131.785156 27.050781 -126.738281 20.59375 -120.28125 C 14.144531 -113.832031 9.097656 -106.351562 5.453125 -97.84375 C 1.816406 -89.332031 0 -80.203125 0 -70.453125 C 0 -60.703125 1.816406 -51.566406 5.453125 -43.046875 C 9.097656 -34.535156 14.144531 -27.050781 20.59375 -20.59375 C 27.050781 -14.144531 34.535156 -9.097656 43.046875 -5.453125 C 51.566406 -1.816406 60.703125 0 70.453125 0 C 80.203125 0 89.332031 -1.816406 97.84375 -5.453125 C 106.351562 -9.097656 113.832031 -14.144531 120.28125 -20.59375 C 126.738281 -27.050781 131.785156 -34.535156 135.421875 -43.046875 C 139.066406 -51.566406 140.890625 -60.703125 140.890625 -70.453125 C 140.890625 -80.203125 139.066406 -89.332031 135.421875 -97.84375 C 131.785156 -106.351562 126.738281 -113.832031 120.28125 -120.28125 C 113.832031 -126.738281 106.351562 -131.785156 97.84375 -135.421875 C 89.332031 -139.066406 80.203125 -140.890625 70.453125 -140.890625 Z M 47.78125 -133.0625 C 54.375 -135.394531 61.101562 -135.976562 67.96875 -134.8125 C 74.84375 -133.644531 81.503906 -130.96875 87.953125 -126.78125 C 94.410156 -122.59375 100.25 -117.164062 105.46875 -110.5 C 110.6875 -103.84375 114.875 -96.191406 118.03125 -87.546875 C 121.1875 -78.890625 122.898438 -70.335938 123.171875 -61.890625 C 123.453125 -53.453125 122.425781 -45.554688 120.09375 -38.203125 C 117.757812 -30.859375 114.320312 -24.507812 109.78125 -19.15625 C 105.25 -13.800781 99.691406 -9.957031 93.109375 -7.625 C 86.515625 -5.289062 79.75 -4.707031 72.8125 -5.875 C 65.875 -7.039062 59.210938 -9.71875 52.828125 -13.90625 C 46.441406 -18.09375 40.640625 -23.515625 35.421875 -30.171875 C 30.210938 -36.835938 26.023438 -44.492188 22.859375 -53.140625 C 19.703125 -61.796875 17.984375 -70.378906 17.703125 -78.890625 C 17.429688 -87.398438 18.425781 -95.296875 20.6875 -102.578125 C 22.957031 -109.859375 26.394531 -116.175781 31 -121.53125 C 35.601562 -126.882812 41.195312 -130.726562 47.78125 -133.0625 Z M 47.78125 -133.0625 "/></g></g></g><g fill="#f4f0e4" fill-opacity="1"><g transform="translate(960.821646, 382.838888)"><g><path d="M 0 0 L 0 -1.859375 C 4.394531 -1.710938 7.691406 -3.492188 9.890625 -7.203125 C 12.085938 -10.910156 13.1875 -18.191406 13.1875 -29.046875 L 13.1875 -111.640625 C 13.1875 -122.628906 12.085938 -130.007812 9.890625 -133.78125 C 7.691406 -137.5625 4.394531 -139.316406 0 -139.046875 L 0 -140.890625 L 53.5625 -140.890625 C 61.800781 -140.890625 69.9375 -140.066406 77.96875 -138.421875 C 86 -136.773438 93.273438 -133.582031 99.796875 -128.84375 C 106.316406 -124.101562 111.5 -117.097656 115.34375 -107.828125 C 119.195312 -98.554688 121.125 -86.367188 121.125 -71.265625 C 121.125 -56.160156 119.195312 -43.9375 115.34375 -34.59375 C 111.5 -25.257812 106.347656 -18.085938 99.890625 -13.078125 C 93.441406 -8.066406 86.203125 -4.632812 78.171875 -2.78125 C 70.140625 -0.925781 61.9375 0 53.5625 0 Z M 32.75 -137.1875 L 32.75 -3.703125 L 59.328125 -3.703125 C 68.796875 -3.703125 76.65625 -6.617188 82.90625 -12.453125 C 89.15625 -18.296875 93.820312 -26.332031 96.90625 -36.5625 C 100 -46.789062 101.546875 -58.359375 101.546875 -71.265625 C 101.546875 -84.316406 99.96875 -95.785156 96.8125 -105.671875 C 93.65625 -115.554688 88.953125 -123.28125 82.703125 -128.84375 C 76.453125 -134.40625 68.660156 -137.1875 59.328125 -137.1875 Z M 32.75 -137.1875 "/></g></g></g><g fill="#f4f0e4" fill-opacity="1"><g transform="translate(1088.320944, 382.838888)"><g><path d="M 0 0 L 0 -1.859375 C 4.394531 -1.710938 7.691406 -3.492188 9.890625 -7.203125 C 12.085938 -10.910156 13.1875 -18.191406 13.1875 -29.046875 L 13.1875 -111.640625 C 13.1875 -122.628906 12.085938 -130.007812 9.890625 -133.78125 C 7.691406 -137.5625 4.394531 -139.316406 0 -139.046875 L 0 -140.890625 L 76.828125 -140.890625 C 82.460938 -140.890625 88.09375 -140.097656 93.71875 -138.515625 C 99.351562 -136.941406 104.09375 -134.234375 107.9375 -130.390625 C 111.78125 -126.546875 113.703125 -121.257812 113.703125 -114.53125 C 113.703125 -107.664062 112.019531 -101.828125 108.65625 -97.015625 C 105.289062 -92.210938 101 -88.195312 95.78125 -84.96875 C 90.5625 -81.738281 85.066406 -78.890625 79.296875 -76.421875 C 86.171875 -76.285156 92.351562 -74.601562 97.84375 -71.375 C 103.332031 -68.144531 107.65625 -63.679688 110.8125 -57.984375 C 113.976562 -52.285156 115.5625 -45.59375 115.5625 -37.90625 C 115.5625 -26.226562 111.988281 -16.988281 104.84375 -10.1875 C 97.707031 -3.394531 88.367188 0 76.828125 0 Z M 32.75 -49.640625 L 32.75 -3.703125 L 64.890625 -3.703125 C 70.796875 -3.703125 75.84375 -4.972656 80.03125 -7.515625 C 84.21875 -10.054688 87.613281 -13.382812 90.21875 -17.5 C 92.832031 -21.625 94.550781 -26.125 95.375 -31 C 96.195312 -35.875 96.128906 -40.644531 95.171875 -45.3125 C 94.066406 -51.632812 91.660156 -56.785156 87.953125 -60.765625 C 84.242188 -64.742188 79.78125 -67.316406 74.5625 -68.484375 C 69.34375 -69.648438 63.78125 -69.207031 57.875 -67.15625 C 53.488281 -65.644531 48.957031 -63.238281 44.28125 -59.9375 C 39.613281 -56.644531 35.769531 -53.210938 32.75 -49.640625 Z M 32.75 -137.1875 L 32.75 -55.203125 C 38.101562 -60.554688 44.554688 -65.460938 52.109375 -69.921875 C 59.660156 -74.390625 66.800781 -79.023438 73.53125 -83.828125 C 78.882812 -87.816406 83.617188 -92.28125 87.734375 -97.21875 C 91.859375 -102.164062 93.921875 -108.207031 93.921875 -115.34375 C 93.921875 -121.25 92.203125 -125.75 88.765625 -128.84375 C 85.335938 -131.9375 81.117188 -134.097656 76.109375 -135.328125 C 71.097656 -136.566406 66.191406 -137.1875 61.390625 -137.1875 Z M 32.75 -137.1875 "/></g></g></g><g fill="#f4f0e4" fill-opacity="1"><g transform="translate(1210.259016, 382.838888)"><g><path d="M 70.453125 -140.890625 C 60.703125 -140.890625 51.566406 -139.066406 43.046875 -135.421875 C 34.535156 -131.785156 27.050781 -126.738281 20.59375 -120.28125 C 14.144531 -113.832031 9.097656 -106.351562 5.453125 -97.84375 C 1.816406 -89.332031 0 -80.203125 0 -70.453125 C 0 -60.703125 1.816406 -51.566406 5.453125 -43.046875 C 9.097656 -34.535156 14.144531 -27.050781 20.59375 -20.59375 C 27.050781 -14.144531 34.535156 -9.097656 43.046875 -5.453125 C 51.566406 -1.816406 60.703125 0 70.453125 0 C 80.203125 0 89.332031 -1.816406 97.84375 -5.453125 C 106.351562 -9.097656 113.832031 -14.144531 120.28125 -20.59375 C 126.738281 -27.050781 131.785156 -34.535156 135.421875 -43.046875 C 139.066406 -51.566406 140.890625 -60.703125 140.890625 -70.453125 C 140.890625 -80.203125 139.066406 -89.332031 135.421875 -97.84375 C 131.785156 -106.351562 126.738281 -113.832031 120.28125 -120.28125 C 113.832031 -126.738281 106.351562 -131.785156 97.84375 -135.421875 C 89.332031 -139.066406 80.203125 -140.890625 70.453125 -140.890625 Z M 47.78125 -133.0625 C 54.375 -135.394531 61.101562 -135.976562 67.96875 -134.8125 C 74.84375 -133.644531 81.503906 -130.96875 87.953125 -126.78125 C 94.410156 -122.59375 100.25 -117.164062 105.46875 -110.5 C 110.6875 -103.84375 114.875 -96.191406 118.03125 -87.546875 C 121.1875 -78.890625 122.898438 -70.335938 123.171875 -61.890625 C 123.453125 -53.453125 122.425781 -45.554688 120.09375 -38.203125 C 117.757812 -30.859375 114.320312 -24.507812 109.78125 -19.15625 C 105.25 -13.800781 99.691406 -9.957031 93.109375 -7.625 C 86.515625 -5.289062 79.75 -4.707031 72.8125 -5.875 C 65.875 -7.039062 59.210938 -9.71875 52.828125 -13.90625 C 46.441406 -18.09375 40.640625 -23.515625 35.421875 -30.171875 C 30.210938 -36.835938 26.023438 -44.492188 22.859375 -53.140625 C 19.703125 -61.796875 17.984375 -70.378906 17.703125 -78.890625 C 17.429688 -87.398438 18.425781 -95.296875 20.6875 -102.578125 C 22.957031 -109.859375 26.394531 -116.175781 31 -121.53125 C 35.601562 -126.882812 41.195312 -130.726562 47.78125 -133.0625 Z M 47.78125 -133.0625 "/></g></g></g><g fill="#f4f0e4" fill-opacity="1"><g transform="translate(1357.532043, 382.838888)"><g><path d="M 79.09375 -140.890625 L 124.421875 -11.53125 C 125.515625 -8.375 127.019531 -5.898438 128.9375 -4.109375 C 130.863281 -2.328125 133.679688 -1.503906 137.390625 -1.640625 L 137.390625 0 L 95.78125 0 L 95.78125 -1.640625 C 99.351562 -1.503906 101.859375 -2.257812 103.296875 -3.90625 C 104.742188 -5.5625 104.914062 -8.101562 103.8125 -11.53125 L 89.8125 -51.296875 C 86.238281 -43.742188 81.5 -39.039062 75.59375 -37.1875 C 69.6875 -35.332031 62.613281 -35.707031 54.375 -38.3125 C 52.320312 -39 49.882812 -39.820312 47.0625 -40.78125 C 44.25 -41.75 41.363281 -42.398438 38.40625 -42.734375 C 35.457031 -43.078125 32.78125 -42.734375 30.375 -41.703125 C 27.976562 -40.679688 26.226562 -38.519531 25.125 -35.21875 L 20.796875 -23.6875 C 20.253906 -21.90625 19.984375 -20.222656 19.984375 -18.640625 C 19.984375 -17.054688 20.253906 -15.375 20.796875 -13.59375 C 21.078125 -12.90625 21.351562 -12.148438 21.625 -11.328125 C 21.90625 -10.503906 22.113281 -9.75 22.25 -9.0625 C 23.34375 -6.039062 24.882812 -4.015625 26.875 -2.984375 C 28.875 -1.953125 31.519531 -1.503906 34.8125 -1.640625 L 34.8125 0 C 29.726562 0 23.851562 0 17.1875 0 C 10.53125 0 4.800781 0 0 0 L 0 -1.640625 C 3.289062 -1.503906 5.96875 -2.257812 8.03125 -3.90625 C 10.09375 -5.5625 11.601562 -7.832031 12.5625 -10.71875 L 58.296875 -140.890625 Z M 88.578125 -55.40625 L 60.359375 -135.53125 L 29.875 -49.234375 C 33.4375 -53.898438 37.828125 -56.675781 43.046875 -57.5625 C 48.265625 -58.457031 54.238281 -57.738281 60.96875 -55.40625 C 64.125 -54.445312 67.347656 -53.414062 70.640625 -52.3125 C 73.941406 -51.21875 77.132812 -50.773438 80.21875 -50.984375 C 83.3125 -51.191406 86.097656 -52.664062 88.578125 -55.40625 Z M 88.578125 -55.40625 "/></g></g></g><g fill="#f4f0e4" fill-opacity="1"><g transform="translate(1501.097558, 382.838888)"><g><path d="M 32.75 -29.046875 C 32.75 -18.191406 33.847656 -10.910156 36.046875 -7.203125 C 38.242188 -3.492188 41.539062 -1.710938 45.9375 -1.859375 L 45.9375 0 L 0 0 L 0 -1.859375 C 4.394531 -1.710938 7.691406 -3.492188 9.890625 -7.203125 C 12.085938 -10.910156 13.1875 -18.191406 13.1875 -29.046875 L 13.1875 -111.640625 C 13.1875 -122.628906 12.085938 -130.007812 9.890625 -133.78125 C 7.691406 -137.5625 4.394531 -139.316406 0 -139.046875 L 0 -140.890625 L 76.828125 -140.890625 C 82.460938 -140.890625 88.09375 -140.097656 93.71875 -138.515625 C 99.351562 -136.941406 104.09375 -134.234375 107.9375 -130.390625 C 111.78125 -126.546875 113.703125 -121.257812 113.703125 -114.53125 C 113.703125 -107.800781 111.742188 -102.304688 107.828125 -98.046875 C 103.921875 -93.785156 98.910156 -90.28125 92.796875 -87.53125 C 86.679688 -84.789062 80.398438 -82.253906 73.953125 -79.921875 C 79.859375 -79.367188 84.523438 -77.648438 87.953125 -74.765625 C 91.390625 -71.890625 93.863281 -68.1875 95.375 -63.65625 C 96.332031 -60.769531 97.566406 -56.890625 99.078125 -52.015625 C 100.585938 -47.140625 102.234375 -42.019531 104.015625 -36.65625 C 105.804688 -31.300781 107.660156 -26.394531 109.578125 -21.9375 C 111.503906 -17.476562 113.359375 -14.21875 115.140625 -12.15625 C 116.648438 -10.507812 118.46875 -9.238281 120.59375 -8.34375 C 122.726562 -7.445312 124.828125 -7.894531 126.890625 -9.6875 L 128.328125 -8.453125 C 126.953125 -5.421875 124.890625 -3.253906 122.140625 -1.953125 C 119.398438 -0.648438 116.519531 0 113.5 0 C 108.414062 0 104.296875 -1.195312 101.140625 -3.59375 C 97.984375 -6 95.441406 -9.054688 93.515625 -12.765625 C 91.046875 -17.296875 88.882812 -22.375 87.03125 -28 C 85.175781 -33.632812 83.492188 -39.265625 81.984375 -44.890625 C 80.472656 -50.523438 78.820312 -55.679688 77.03125 -60.359375 C 74.84375 -66.535156 71.960938 -70.789062 68.390625 -73.125 C 64.816406 -75.457031 59.875 -75.113281 53.5625 -72.09375 C 49.707031 -70.3125 45.820312 -67.835938 41.90625 -64.671875 C 38 -61.515625 34.945312 -58.703125 32.75 -56.234375 Z M 32.75 -137.1875 L 32.75 -61.59375 C 35.5 -64.332031 38.484375 -66.867188 41.703125 -69.203125 C 44.929688 -71.546875 48.332031 -73.816406 51.90625 -76.015625 C 55.207031 -78.203125 59.222656 -80.632812 63.953125 -83.3125 C 68.691406 -86 73.359375 -88.921875 77.953125 -92.078125 C 82.554688 -95.234375 86.367188 -98.734375 89.390625 -102.578125 C 92.410156 -106.421875 93.921875 -110.675781 93.921875 -115.34375 C 94.066406 -121.53125 92.421875 -126.164062 88.984375 -129.25 C 85.546875 -132.34375 81.285156 -134.4375 76.203125 -135.53125 C 71.128906 -136.632812 66.191406 -137.1875 61.390625 -137.1875 Z M 32.75 -137.1875 "/></g></g></g><g fill="#f4f0e4" fill-opacity="1"><g transform="translate(1635.600032, 382.838888)"><g><path d="M 0 0 L 0 -1.859375 C 4.394531 -1.710938 7.691406 -3.492188 9.890625 -7.203125 C 12.085938 -10.910156 13.1875 -18.191406 13.1875 -29.046875 L 13.1875 -111.640625 C 13.1875 -122.628906 12.085938 -130.007812 9.890625 -133.78125 C 7.691406 -137.5625 4.394531 -139.316406 0 -139.046875 L 0 -140.890625 L 53.5625 -140.890625 C 61.800781 -140.890625 69.9375 -140.066406 77.96875 -138.421875 C 86 -136.773438 93.273438 -133.582031 99.796875 -128.84375 C 106.316406 -124.101562 111.5 -117.097656 115.34375 -107.828125 C 119.195312 -98.554688 121.125 -86.367188 121.125 -71.265625 C 121.125 -56.160156 119.195312 -43.9375 115.34375 -34.59375 C 111.5 -25.257812 106.347656 -18.085938 99.890625 -13.078125 C 93.441406 -8.066406 86.203125 -4.632812 78.171875 -2.78125 C 70.140625 -0.925781 61.9375 0 53.5625 0 Z M 32.75 -137.1875 L 32.75 -3.703125 L 59.328125 -3.703125 C 68.796875 -3.703125 76.65625 -6.617188 82.90625 -12.453125 C 89.15625 -18.296875 93.820312 -26.332031 96.90625 -36.5625 C 100 -46.789062 101.546875 -58.359375 101.546875 -71.265625 C 101.546875 -84.316406 99.96875 -95.785156 96.8125 -105.671875 C 93.65625 -115.554688 88.953125 -123.28125 82.703125 -128.84375 C 76.453125 -134.40625 68.660156 -137.1875 59.328125 -137.1875 Z M 32.75 -137.1875 "/></g></g></g></svg>