<svg xmlns="http://www.w3.org/2000/svg" xmlns:xlink="http://www.w3.org/1999/xlink" width="2560" zoomAndPan="magnify" viewBox="0 0 1920 637.92" height="840" preserveAspectRatio="xMidYMid meet" version="1.0"><defs><g/></defs><g fill="#2c4a3e" fill-opacity="1"><g transform="translate(29.636205, 336.910605)"><g><path d="M 108.390625 -25.09375 L 108.390625 -112.125 L 69.046875 0 L 50.90625 0 L 14.59375 -104.296875 L 14.59375 -25.09375 C 14.59375 -15.71875 15.539062 -9.425781 17.4375 -6.21875 C 19.332031 -3.019531 22.179688 -1.484375 25.984375 -1.609375 L 25.984375 0 L 0 0 L 0 -1.609375 C 3.789062 -1.484375 6.632812 -3.019531 8.53125 -6.21875 C 10.4375 -9.425781 11.390625 -15.71875 11.390625 -25.09375 L 11.390625 -96.453125 C 11.390625 -105.953125 10.4375 -112.332031 8.53125 -115.59375 C 6.632812 -118.851562 3.789062 -120.363281 0 -120.125 L 0 -121.734375 L 26.515625 -121.734375 L 67.265625 -4.453125 L 108.390625 -121.734375 L 136.6875 -121.734375 L 136.6875 -120.125 C 132.882812 -120.363281 130.035156 -118.851562 128.140625 -115.59375 C 126.242188 -112.332031 125.296875 -105.953125 125.296875 -96.453125 L 125.296875 -25.09375 C 125.296875 -15.71875 126.242188 -9.425781 128.140625 -6.21875 C 130.035156 -3.019531 132.882812 -1.484375 136.6875 -1.609375 L 136.6875 0 L 97 0 L 97 -1.609375 C 100.789062 -1.484375 103.632812 -3.019531 105.53125 -6.21875 C 107.4375 -9.425781 108.390625 -15.71875 108.390625 -25.09375 Z M 108.390625 -25.09375 "/></g></g></g><g fill="#2c4a3e" fill-opacity="1"><g transform="translate(171.481248, 336.910605)"><g><path d="M 60.859375 -121.734375 C 52.441406 -121.734375 44.550781 -120.160156 37.1875 -117.015625 C 29.832031 -113.867188 23.367188 -109.503906 17.796875 -103.921875 C 12.222656 -98.347656 7.863281 -91.882812 4.71875 -84.53125 C 1.570312 -77.175781 0 -69.285156 0 -60.859375 C 0 -52.441406 1.570312 -44.550781 4.71875 -37.1875 C 7.863281 -29.832031 12.222656 -23.367188 17.796875 -17.796875 C 23.367188 -12.222656 29.832031 -7.863281 37.1875 -4.71875 C 44.550781 -1.570312 52.441406 0 60.859375 0 C 69.285156 0 77.175781 -1.570312 84.53125 -4.71875 C 91.882812 -7.863281 98.347656 -12.222656 103.921875 -17.796875 C 109.503906 -23.367188 113.867188 -29.832031 117.015625 -37.1875 C 120.160156 -44.550781 121.734375 -52.441406 121.734375 -60.859375 C 121.734375 -69.285156 120.160156 -77.175781 117.015625 -84.53125 C 113.867188 -91.882812 109.503906 -98.347656 103.921875 -103.921875 C 98.347656 -109.503906 91.882812 -113.867188 84.53125 -117.015625 C 77.175781 -120.160156 69.285156 -121.734375 60.859375 -121.734375 Z M 41.28125 -114.96875 C 46.976562 -116.988281 52.789062 -117.492188 58.71875 -116.484375 C 64.65625 -115.472656 70.410156 -113.15625 75.984375 -109.53125 C 81.566406 -105.914062 86.609375 -101.226562 91.109375 -95.46875 C 95.617188 -89.71875 99.238281 -83.109375 101.96875 -75.640625 C 104.695312 -68.160156 106.179688 -60.769531 106.421875 -53.46875 C 106.660156 -46.175781 105.769531 -39.351562 103.75 -33 C 101.738281 -26.65625 98.773438 -21.171875 94.859375 -16.546875 C 90.941406 -11.921875 86.132812 -8.597656 80.4375 -6.578125 C 74.75 -4.566406 68.90625 -4.0625 62.90625 -5.0625 C 56.914062 -6.070312 51.160156 -8.382812 45.640625 -12 C 40.128906 -15.625 35.117188 -20.3125 30.609375 -26.0625 C 26.097656 -31.820312 22.476562 -38.441406 19.75 -45.921875 C 17.019531 -53.390625 15.535156 -60.800781 15.296875 -68.15625 C 15.066406 -75.519531 15.929688 -82.34375 17.890625 -88.625 C 19.847656 -94.914062 22.8125 -100.375 26.78125 -105 C 30.757812 -109.625 35.59375 -112.945312 41.28125 -114.96875 Z M 41.28125 -114.96875 "/></g></g></g><g fill="#2c4a3e" fill-opacity="1"><g transform="translate(298.732469, 336.910605)"><g><path d="M 60.859375 -121.734375 C 52.441406 -121.734375 44.550781 -120.160156 37.1875 -117.015625 C 29.832031 -113.867188 23.367188 -109.503906 17.796875 -103.921875 C 12.222656 -98.347656 7.863281 -91.882812 4.71875 -84.53125 C 1.570312 -77.175781 0 -69.285156 0 -60.859375 C 0 -52.441406 1.570312 -44.550781 4.71875 -37.1875 C 7.863281 -29.832031 12.222656 -23.367188 17.796875 -17.796875 C 23.367188 -12.222656 29.832031 -7.863281 37.1875 -4.71875 C 44.550781 -1.570312 52.441406 0 60.859375 0 C 69.285156 0 77.175781 -1.570312 84.53125 -4.71875 C 91.882812 -7.863281 98.347656 -12.222656 103.921875 -17.796875 C 109.503906 -23.367188 113.867188 -29.832031 117.015625 -37.1875 C 120.160156 -44.550781 121.734375 -52.441406 121.734375 -60.859375 C 121.734375 -69.285156 120.160156 -77.175781 117.015625 -84.53125 C 113.867188 -91.882812 109.503906 -98.347656 103.921875 -103.921875 C 98.347656 -109.503906 91.882812 -113.867188 84.53125 -117.015625 C 77.175781 -120.160156 69.285156 -121.734375 60.859375 -121.734375 Z M 41.28125 -114.96875 C 46.976562 -116.988281 52.789062 -117.492188 58.71875 -116.484375 C 64.65625 -115.472656 70.410156 -113.15625 75.984375 -109.53125 C 81.566406 -105.914062 86.609375 -101.226562 91.109375 -95.46875 C 95.617188 -89.71875 99.238281 -83.109375 101.96875 -75.640625 C 104.695312 -68.160156 106.179688 -60.769531 106.421875 -53.46875 C 106.660156 -46.175781 105.769531 -39.351562 103.75 -33 C 101.738281 -26.65625 98.773438 -21.171875 94.859375 -16.546875 C 90.941406 -11.921875 86.132812 -8.597656 80.4375 -6.578125 C 74.75 -4.566406 68.90625 -4.0625 62.90625 -5.0625 C 56.914062 -6.070312 51.160156 -8.382812 45.640625 -12 C 40.128906 -15.625 35.117188 -20.3125 30.609375 -26.0625 C 26.097656 -31.820312 22.476562 -38.441406 19.75 -45.921875 C 17.019531 -53.390625 15.535156 -60.800781 15.296875 -68.15625 C 15.066406 -75.519531 15.929688 -82.34375 17.890625 -88.625 C 19.847656 -94.914062 22.8125 -100.375 26.78125 -105 C 30.757812 -109.625 35.59375 -112.945312 41.28125 -114.96875 Z M 41.28125 -114.96875 "/></g></g></g><g fill="#2c4a3e" fill-opacity="1"><g transform="translate(425.983638, 336.910605)"><g><path d="M 0 0 L 0 -1.609375 C 3.789062 -1.484375 6.632812 -3.019531 8.53125 -6.21875 C 10.4375 -9.425781 11.390625 -15.71875 11.390625 -25.09375 L 11.390625 -96.453125 C 11.390625 -105.953125 10.4375 -112.332031 8.53125 -115.59375 C 6.632812 -118.851562 3.789062 -120.363281 0 -120.125 L 0 -121.734375 L 46.265625 -121.734375 C 53.390625 -121.734375 60.421875 -121.019531 67.359375 -119.59375 C 74.296875 -118.164062 80.582031 -115.40625 86.21875 -111.3125 C 91.851562 -107.21875 96.332031 -101.164062 99.65625 -93.15625 C 102.976562 -85.15625 104.640625 -74.628906 104.640625 -61.578125 C 104.640625 -48.523438 102.976562 -37.960938 99.65625 -29.890625 C 96.332031 -21.828125 91.882812 -15.628906 86.3125 -11.296875 C 80.738281 -6.972656 74.476562 -4.007812 67.53125 -2.40625 C 60.59375 -0.800781 53.503906 0 46.265625 0 Z M 28.296875 -118.53125 L 28.296875 -3.203125 L 51.25 -3.203125 C 59.4375 -3.203125 66.226562 -5.722656 71.625 -10.765625 C 77.03125 -15.804688 81.066406 -22.742188 83.734375 -31.578125 C 86.398438 -40.421875 87.734375 -50.421875 87.734375 -61.578125 C 87.734375 -72.847656 86.367188 -82.753906 83.640625 -91.296875 C 80.910156 -99.835938 76.847656 -106.507812 71.453125 -111.3125 C 66.054688 -116.125 59.320312 -118.53125 51.25 -118.53125 Z M 28.296875 -118.53125 "/></g></g></g><g fill="#2c4a3e" fill-opacity="1"><g transform="translate(536.149414, 336.910605)"><g><path d="M 0 0 L 0 -1.609375 C 3.789062 -1.484375 6.632812 -3.019531 8.53125 -6.21875 C 10.4375 -9.425781 11.390625 -15.71875 11.390625 -25.09375 L 11.390625 -96.453125 C 11.390625 -105.953125 10.4375 -112.332031 8.53125 -115.59375 C 6.632812 -118.851562 3.789062 -120.363281 0 -120.125 L 0 -121.734375 L 66.375 -121.734375 C 71.238281 -121.734375 76.101562 -121.050781 80.96875 -119.6875 C 85.832031 -118.320312 89.925781 -115.976562 93.25 -112.65625 C 96.570312 -109.332031 98.234375 -104.765625 98.234375 -98.953125 C 98.234375 -93.015625 96.78125 -87.96875 93.875 -83.8125 C 90.96875 -79.664062 87.257812 -76.195312 82.75 -73.40625 C 78.25 -70.625 73.503906 -68.164062 68.515625 -66.03125 C 74.453125 -65.90625 79.789062 -64.445312 84.53125 -61.65625 C 89.28125 -58.875 93.019531 -55.019531 95.75 -50.09375 C 98.476562 -45.175781 99.84375 -39.394531 99.84375 -32.75 C 99.84375 -22.664062 96.753906 -14.6875 90.578125 -8.8125 C 84.410156 -2.9375 76.34375 0 66.375 0 Z M 28.296875 -42.890625 L 28.296875 -3.203125 L 56.0625 -3.203125 C 61.164062 -3.203125 65.523438 -4.296875 69.140625 -6.484375 C 72.753906 -8.679688 75.6875 -11.5625 77.9375 -15.125 C 80.195312 -18.6875 81.679688 -22.570312 82.390625 -26.78125 C 83.109375 -31 83.050781 -35.125 82.21875 -39.15625 C 81.269531 -44.613281 79.191406 -49.0625 75.984375 -52.5 C 72.785156 -55.9375 68.929688 -58.160156 64.421875 -59.171875 C 59.910156 -60.179688 55.109375 -59.796875 50.015625 -58.015625 C 46.210938 -56.710938 42.296875 -54.632812 38.265625 -51.78125 C 34.234375 -48.9375 30.910156 -45.972656 28.296875 -42.890625 Z M 28.296875 -118.53125 L 28.296875 -47.703125 C 32.921875 -52.328125 38.492188 -56.566406 45.015625 -60.421875 C 51.546875 -64.273438 57.71875 -68.28125 63.53125 -72.4375 C 68.15625 -75.875 72.25 -79.726562 75.8125 -84 C 79.375 -88.269531 81.15625 -93.488281 81.15625 -99.65625 C 81.15625 -104.757812 79.671875 -108.644531 76.703125 -111.3125 C 73.734375 -113.988281 70.082031 -115.859375 65.75 -116.921875 C 61.425781 -117.992188 57.1875 -118.53125 53.03125 -118.53125 Z M 28.296875 -118.53125 "/></g></g></g><g fill="#2c4a3e" fill-opacity="1"><g transform="translate(641.509823, 336.910605)"><g><path d="M 60.859375 -121.734375 C 52.441406 -121.734375 44.550781 -120.160156 37.1875 -117.015625 C 29.832031 -113.867188 23.367188 -109.503906 17.796875 -103.921875 C 12.222656 -98.347656 7.863281 -91.882812 4.71875 -84.53125 C 1.570312 -77.175781 0 -69.285156 0 -60.859375 C 0 -52.441406 1.570312 -44.550781 4.71875 -37.1875 C 7.863281 -29.832031 12.222656 -23.367188 17.796875 -17.796875 C 23.367188 -12.222656 29.832031 -7.863281 37.1875 -4.71875 C 44.550781 -1.570312 52.441406 0 60.859375 0 C 69.285156 0 77.175781 -1.570312 84.53125 -4.71875 C 91.882812 -7.863281 98.347656 -12.222656 103.921875 -17.796875 C 109.503906 -23.367188 113.867188 -29.832031 117.015625 -37.1875 C 120.160156 -44.550781 121.734375 -52.441406 121.734375 -60.859375 C 121.734375 -69.285156 120.160156 -77.175781 117.015625 -84.53125 C 113.867188 -91.882812 109.503906 -98.347656 103.921875 -103.921875 C 98.347656 -109.503906 91.882812 -113.867188 84.53125 -117.015625 C 77.175781 -120.160156 69.285156 -121.734375 60.859375 -121.734375 Z M 41.28125 -114.96875 C 46.976562 -116.988281 52.789062 -117.492188 58.71875 -116.484375 C 64.65625 -115.472656 70.410156 -113.15625 75.984375 -109.53125 C 81.566406 -105.914062 86.609375 -101.226562 91.109375 -95.46875 C 95.617188 -89.71875 99.238281 -83.109375 101.96875 -75.640625 C 104.695312 -68.160156 106.179688 -60.769531 106.421875 -53.46875 C 106.660156 -46.175781 105.769531 -39.351562 103.75 -33 C 101.738281 -26.65625 98.773438 -21.171875 94.859375 -16.546875 C 90.941406 -11.921875 86.132812 -8.597656 80.4375 -6.578125 C 74.75 -4.566406 68.90625 -4.0625 62.90625 -5.0625 C 56.914062 -6.070312 51.160156 -8.382812 45.640625 -12 C 40.128906 -15.625 35.117188 -20.3125 30.609375 -26.0625 C 26.097656 -31.820312 22.476562 -38.441406 19.75 -45.921875 C 17.019531 -53.390625 15.535156 -60.800781 15.296875 -68.15625 C 15.066406 -75.519531 15.929688 -82.34375 17.890625 -88.625 C 19.847656 -94.914062 22.8125 -100.375 26.78125 -105 C 30.757812 -109.625 35.59375 -112.945312 41.28125 -114.96875 Z M 41.28125 -114.96875 "/></g></g></g><g fill="#2c4a3e" fill-opacity="1"><g transform="translate(768.761045, 336.910605)"><g><path d="M 68.34375 -121.734375 L 107.5 -9.96875 C 108.445312 -7.238281 109.75 -5.101562 111.40625 -3.5625 C 113.070312 -2.019531 115.503906 -1.304688 118.703125 -1.421875 L 118.703125 0 L 82.75 0 L 82.75 -1.421875 C 85.832031 -1.304688 88 -1.957031 89.25 -3.375 C 90.5 -4.800781 90.648438 -7 89.703125 -9.96875 L 77.59375 -44.3125 C 74.507812 -37.789062 70.414062 -33.726562 65.3125 -32.125 C 60.207031 -30.519531 54.097656 -30.847656 46.984375 -33.109375 C 45.203125 -33.691406 43.09375 -34.398438 40.65625 -35.234375 C 38.226562 -36.066406 35.738281 -36.628906 33.1875 -36.921875 C 30.632812 -37.222656 28.320312 -36.925781 26.25 -36.03125 C 24.175781 -35.144531 22.664062 -33.28125 21.71875 -30.4375 L 17.96875 -20.46875 C 17.5 -18.925781 17.265625 -17.472656 17.265625 -16.109375 C 17.265625 -14.742188 17.5 -13.289062 17.96875 -11.75 C 18.207031 -11.15625 18.445312 -10.5 18.6875 -9.78125 C 18.925781 -9.070312 19.101562 -8.421875 19.21875 -7.828125 C 20.164062 -5.222656 21.5 -3.472656 23.21875 -2.578125 C 24.945312 -1.691406 27.234375 -1.304688 30.078125 -1.421875 L 30.078125 0 C 25.679688 0 20.609375 0 14.859375 0 C 9.109375 0 4.15625 0 0 0 L 0 -1.421875 C 2.84375 -1.304688 5.15625 -1.957031 6.9375 -3.375 C 8.71875 -4.800781 10.023438 -6.757812 10.859375 -9.25 L 50.359375 -121.734375 Z M 76.53125 -47.875 L 52.140625 -117.109375 L 25.8125 -42.53125 C 28.894531 -46.5625 32.6875 -48.960938 37.1875 -49.734375 C 41.695312 -50.515625 46.859375 -49.894531 52.671875 -47.875 C 55.398438 -47.039062 58.1875 -46.148438 61.03125 -45.203125 C 63.882812 -44.253906 66.644531 -43.867188 69.3125 -44.046875 C 71.988281 -44.222656 74.394531 -45.5 76.53125 -47.875 Z M 76.53125 -47.875 "/></g></g></g><g fill="#2c4a3e" fill-opacity="1"><g transform="translate(892.808685, 336.910605)"><g><path d="M 28.296875 -25.09375 C 28.296875 -15.71875 29.242188 -9.425781 31.140625 -6.21875 C 33.035156 -3.019531 35.882812 -1.484375 39.6875 -1.609375 L 39.6875 0 L 0 0 L 0 -1.609375 C 3.789062 -1.484375 6.632812 -3.019531 8.53125 -6.21875 C 10.4375 -9.425781 11.390625 -15.71875 11.390625 -25.09375 L 11.390625 -96.453125 C 11.390625 -105.953125 10.4375 -112.332031 8.53125 -115.59375 C 6.632812 -118.851562 3.789062 -120.363281 0 -120.125 L 0 -121.734375 L 66.375 -121.734375 C 71.238281 -121.734375 76.101562 -121.050781 80.96875 -119.6875 C 85.832031 -118.320312 89.925781 -115.976562 93.25 -112.65625 C 96.570312 -109.332031 98.234375 -104.765625 98.234375 -98.953125 C 98.234375 -93.140625 96.539062 -88.394531 93.15625 -84.71875 C 89.78125 -81.039062 85.453125 -78.015625 80.171875 -75.640625 C 74.890625 -73.265625 69.460938 -71.066406 63.890625 -69.046875 C 68.992188 -68.578125 73.023438 -67.09375 75.984375 -64.59375 C 78.953125 -62.101562 81.09375 -58.90625 82.40625 -55 C 83.226562 -52.5 84.289062 -49.144531 85.59375 -44.9375 C 86.90625 -40.726562 88.332031 -36.304688 89.875 -31.671875 C 91.414062 -27.046875 93.015625 -22.804688 94.671875 -18.953125 C 96.335938 -15.097656 97.941406 -12.28125 99.484375 -10.5 C 100.785156 -9.070312 102.351562 -7.972656 104.1875 -7.203125 C 106.03125 -6.429688 107.84375 -6.816406 109.625 -8.359375 L 110.875 -7.296875 C 109.6875 -4.679688 107.90625 -2.8125 105.53125 -1.6875 C 103.15625 -0.5625 100.664062 0 98.0625 0 C 93.664062 0 90.101562 -1.035156 87.375 -3.109375 C 84.65625 -5.191406 82.460938 -7.832031 80.796875 -11.03125 C 78.660156 -14.945312 76.789062 -19.335938 75.1875 -24.203125 C 73.59375 -29.066406 72.140625 -33.929688 70.828125 -38.796875 C 69.523438 -43.660156 68.101562 -48.109375 66.5625 -52.140625 C 64.664062 -57.484375 62.171875 -61.160156 59.078125 -63.171875 C 55.992188 -65.191406 51.722656 -64.894531 46.265625 -62.28125 C 42.941406 -60.738281 39.585938 -58.601562 36.203125 -55.875 C 32.828125 -53.144531 30.191406 -50.710938 28.296875 -48.578125 Z M 28.296875 -118.53125 L 28.296875 -53.21875 C 30.671875 -55.582031 33.25 -57.773438 36.03125 -59.796875 C 38.820312 -61.816406 41.757812 -63.773438 44.84375 -65.671875 C 47.695312 -67.566406 51.171875 -69.671875 55.265625 -71.984375 C 59.359375 -74.296875 63.390625 -76.816406 67.359375 -79.546875 C 71.335938 -82.273438 74.628906 -85.300781 77.234375 -88.625 C 79.847656 -91.945312 81.15625 -95.625 81.15625 -99.65625 C 81.269531 -105 79.84375 -109.003906 76.875 -111.671875 C 73.914062 -114.335938 70.238281 -116.144531 65.84375 -117.09375 C 61.457031 -118.050781 57.1875 -118.53125 53.03125 -118.53125 Z M 28.296875 -118.53125 "/></g></g></g><g fill="#2c4a3e" fill-opacity="1"><g transform="translate(1009.025521, 336.910605)"><g><path d="M 0 0 L 0 -1.609375 C 3.789062 -1.484375 6.632812 -3.019531 8.53125 -6.21875 C 10.4375 -9.425781 11.390625 -15.71875 11.390625 -25.09375 L 11.390625 -96.453125 C 11.390625 -105.953125 10.4375 -112.332031 8.53125 -115.59375 C 6.632812 -118.851562 3.789062 -120.363281 0 -120.125 L 0 -121.734375 L 46.265625 -121.734375 C 53.390625 -121.734375 60.421875 -121.019531 67.359375 -119.59375 C 74.296875 -118.164062 80.582031 -115.40625 86.21875 -111.3125 C 91.851562 -107.21875 96.332031 -101.164062 99.65625 -93.15625 C 102.976562 -85.15625 104.640625 -74.628906 104.640625 -61.578125 C 104.640625 -48.523438 102.976562 -37.960938 99.65625 -29.890625 C 96.332031 -21.828125 91.882812 -15.628906 86.3125 -11.296875 C 80.738281 -6.972656 74.476562 -4.007812 67.53125 -2.40625 C 60.59375 -0.800781 53.503906 0 46.265625 0 Z M 28.296875 -118.53125 L 28.296875 -3.203125 L 51.25 -3.203125 C 59.4375 -3.203125 66.226562 -5.722656 71.625 -10.765625 C 77.03125 -15.804688 81.066406 -22.742188 83.734375 -31.578125 C 86.398438 -40.421875 87.734375 -50.421875 87.734375 -61.578125 C 87.734375 -72.847656 86.367188 -82.753906 83.640625 -91.296875 C 80.910156 -99.835938 76.847656 -106.507812 71.453125 -111.3125 C 66.054688 -116.125 59.320312 -118.53125 51.25 -118.53125 Z M 28.296875 -118.53125 "/></g></g></g><g fill="#2c4a3e" fill-opacity="1"><g transform="translate(1119.191297, 336.910605)"><g/></g></g><g fill="#2c4a3e" fill-opacity="1"><g transform="translate(1171.337587, 336.910605)"><g><path d="M 108.390625 -25.09375 L 108.390625 -112.125 L 69.046875 0 L 50.90625 0 L 14.59375 -104.296875 L 14.59375 -25.09375 C 14.59375 -15.71875 15.539062 -9.425781 17.4375 -6.21875 C 19.332031 -3.019531 22.179688 -1.484375 25.984375 -1.609375 L 25.984375 0 L 0 0 L 0 -1.609375 C 3.789062 -1.484375 6.632812 -3.019531 8.53125 -6.21875 C 10.4375 -9.425781 11.390625 -15.71875 11.390625 -25.09375 L 11.390625 -96.453125 C 11.390625 -105.953125 10.4375 -112.332031 8.53125 -115.59375 C 6.632812 -118.851562 3.789062 -120.363281 0 -120.125 L 0 -121.734375 L 26.515625 -121.734375 L 67.265625 -4.453125 L 108.390625 -121.734375 L 136.6875 -121.734375 L 136.6875 -120.125 C 132.882812 -120.363281 130.035156 -118.851562 128.140625 -115.59375 C 126.242188 -112.332031 125.296875 -105.953125 125.296875 -96.453125 L 125.296875 -25.09375 C 125.296875 -15.71875 126.242188 -9.425781 128.140625 -6.21875 C 130.035156 -3.019531 132.882812 -1.484375 136.6875 -1.609375 L 136.6875 0 L 97 0 L 97 -1.609375 C 100.789062 -1.484375 103.632812 -3.019531 105.53125 -6.21875 C 107.4375 -9.425781 108.390625 -15.71875 108.390625 -25.09375 Z M 108.390625 -25.09375 "/></g></g></g><g fill="#2c4a3e" fill-opacity="1"><g transform="translate(1313.182585, 336.910605)"><g><path d="M 105.53125 -121.734375 L 105.53125 -120.125 C 101.738281 -120.363281 98.890625 -118.851562 96.984375 -115.59375 C 95.085938 -112.332031 94.140625 -105.953125 94.140625 -96.453125 L 94.140625 -52.671875 C 94.140625 -44.253906 93.609375 -37.078125 92.546875 -31.140625 C 90.648438 -20.703125 86.257812 -12.898438 79.375 -7.734375 C 72.488281 -2.578125 63.769531 0 53.21875 0 C 42.414062 0 33.363281 -2.488281 26.0625 -7.46875 C 18.769531 -12.457031 14.296875 -20.707031 12.640625 -32.21875 C 11.921875 -37.082031 11.53125 -42.597656 11.46875 -48.765625 C 11.414062 -54.929688 11.390625 -60.390625 11.390625 -65.140625 L 11.390625 -96.453125 C 11.390625 -105.953125 10.4375 -112.332031 8.53125 -115.59375 C 6.632812 -118.851562 3.789062 -120.363281 0 -120.125 L 0 -121.734375 L 39.6875 -121.734375 L 39.6875 -120.125 C 35.882812 -120.363281 33.035156 -118.851562 31.140625 -115.59375 C 29.242188 -112.332031 28.296875 -105.953125 28.296875 -96.453125 L 28.296875 -61.75 C 28.296875 -57.007812 28.351562 -52.351562 28.46875 -47.78125 C 28.59375 -43.21875 28.890625 -38.503906 29.359375 -33.640625 C 30.304688 -25.804688 33.003906 -19.304688 37.453125 -14.140625 C 41.910156 -8.984375 48.46875 -6.40625 57.125 -6.40625 C 64.125 -6.519531 70.351562 -8.359375 75.8125 -11.921875 C 81.269531 -15.484375 85.125 -20.585938 87.375 -27.234375 C 88.800781 -31.023438 89.75 -35.175781 90.21875 -39.6875 C 90.695312 -44.195312 90.9375 -48.820312 90.9375 -53.5625 L 90.9375 -96.453125 C 90.9375 -105.953125 89.988281 -112.332031 88.09375 -115.59375 C 86.195312 -118.851562 83.347656 -120.363281 79.546875 -120.125 L 79.546875 -121.734375 Z M 105.53125 -121.734375 "/></g></g></g><g fill="#2c4a3e" fill-opacity="1"><g transform="translate(1424.238233, 336.910605)"><g><path d="M 1.609375 -49.125 C 3.859375 -39.988281 7.503906 -31.945312 12.546875 -25 C 17.585938 -18.0625 23.609375 -12.691406 30.609375 -8.890625 C 37.609375 -5.097656 45.023438 -3.203125 52.859375 -3.203125 C 56.296875 -3.203125 59.972656 -3.613281 63.890625 -4.4375 C 67.804688 -5.269531 71.484375 -6.578125 74.921875 -8.359375 C 78.359375 -10.140625 81.234375 -12.539062 83.546875 -15.5625 C 85.867188 -18.59375 87.085938 -22.363281 87.203125 -26.875 C 87.441406 -32.207031 85.957031 -36.976562 82.75 -41.1875 C 79.550781 -45.40625 75.695312 -48.523438 71.1875 -50.546875 C 66.207031 -52.921875 60.867188 -54.695312 55.171875 -55.875 C 49.472656 -57.0625 43.71875 -58.28125 37.90625 -59.53125 C 32.09375 -60.78125 26.515625 -62.53125 21.171875 -64.78125 C 17.972656 -66.207031 14.738281 -67.988281 11.46875 -70.125 C 8.207031 -72.257812 5.476562 -74.894531 3.28125 -78.03125 C 1.09375 -81.175781 0 -84.828125 0 -88.984375 C 0 -93.140625 1.003906 -96.90625 3.015625 -100.28125 C 5.035156 -103.664062 7.585938 -106.632812 10.671875 -109.1875 C 13.765625 -111.738281 16.851562 -113.785156 19.9375 -115.328125 C 24.320312 -117.460938 28.972656 -119.0625 33.890625 -120.125 C 38.816406 -121.195312 43.832031 -121.734375 48.9375 -121.734375 C 58.070312 -121.734375 66.96875 -120.304688 75.625 -117.453125 C 84.289062 -114.609375 91.828125 -110.578125 98.234375 -105.359375 L 91.65625 -88.09375 C 85.71875 -96.757812 79.898438 -103.582031 74.203125 -108.5625 C 68.515625 -113.539062 61.816406 -116.625 54.109375 -117.8125 C 48.171875 -118.757812 42.144531 -118.550781 36.03125 -117.1875 C 29.925781 -115.820312 24.617188 -112.890625 20.109375 -108.390625 C 15.722656 -103.753906 14.03125 -98.972656 15.03125 -94.046875 C 16.039062 -89.128906 19.632812 -85.007812 25.8125 -81.6875 C 30.675781 -79.195312 36.015625 -77.269531 41.828125 -75.90625 C 47.640625 -74.539062 53.570312 -73.234375 59.625 -71.984375 C 65.675781 -70.742188 71.367188 -69.082031 76.703125 -67 C 82.046875 -64.925781 86.613281 -61.875 90.40625 -57.84375 C 93.726562 -54.28125 95.984375 -49.976562 97.171875 -44.9375 C 98.359375 -39.894531 98.535156 -34.765625 97.703125 -29.546875 C 96.867188 -24.328125 95.03125 -19.757812 92.1875 -15.84375 C 89.34375 -11.925781 85.691406 -8.8125 81.234375 -6.5 C 76.785156 -4.1875 72.039062 -2.523438 67 -1.515625 C 61.957031 -0.503906 56.945312 0 51.96875 0 C 42.238281 0 32.921875 -1.539062 24.015625 -4.625 C 15.117188 -7.707031 7.113281 -12.394531 0 -18.6875 L 0 -49.125 Z M 1.609375 -49.125 "/></g></g></g><g fill="#2c4a3e" fill-opacity="1"><g transform="translate(1527.996945, 336.910605)"><g><path d="M 0 0 L 0 -1.609375 C 3.789062 -1.484375 6.632812 -3.019531 8.53125 -6.21875 C 10.4375 -9.425781 11.390625 -15.71875 11.390625 -25.09375 L 11.390625 -96.453125 C 11.390625 -105.953125 10.4375 -112.332031 8.53125 -115.59375 C 6.632812 -118.851562 3.789062 -120.363281 0 -120.125 L 0 -121.734375 L 91.65625 -121.734375 L 99.125 -94.859375 L 97.53125 -94.859375 C 95.75 -99.484375 92.835938 -103.570312 88.796875 -107.125 C 84.765625 -110.6875 80.285156 -113.476562 75.359375 -115.5 C 70.441406 -117.519531 65.550781 -118.53125 60.6875 -118.53125 L 28.296875 -118.53125 L 28.296875 -56.765625 C 31.378906 -63.535156 35.472656 -67.71875 40.578125 -69.3125 C 45.679688 -70.914062 51.789062 -70.53125 58.90625 -68.15625 C 61.875 -67.207031 64.867188 -66.226562 67.890625 -65.21875 C 70.921875 -64.21875 73.828125 -63.984375 76.609375 -64.515625 C 79.398438 -65.046875 81.921875 -67.03125 84.171875 -70.46875 L 85.609375 -69.765625 C 82.640625 -60.984375 78.453125 -55.4375 73.046875 -53.125 C 67.648438 -50.8125 61.039062 -50.957031 53.21875 -53.5625 C 50.363281 -54.519531 47.421875 -55.472656 44.390625 -56.421875 C 41.367188 -57.367188 38.492188 -57.632812 35.765625 -57.21875 C 33.035156 -56.800781 30.546875 -54.988281 28.296875 -51.78125 L 28.296875 -3.203125 L 59.625 -3.203125 C 65.4375 -3.203125 71.25 -4.476562 77.0625 -7.03125 C 82.875 -9.582031 88.125 -13.019531 92.8125 -17.34375 C 97.5 -21.675781 100.910156 -26.570312 103.046875 -32.03125 L 104.46875 -32.03125 L 94.328125 0 Z M 0 0 "/></g></g></g><g fill="#2c4a3e" fill-opacity="1"><g transform="translate(1637.450805, 336.910605)"><g><path d="M 105.53125 -121.734375 L 105.53125 -120.125 C 101.738281 -120.363281 98.890625 -118.851562 96.984375 -115.59375 C 95.085938 -112.332031 94.140625 -105.953125 94.140625 -96.453125 L 94.140625 -52.671875 C 94.140625 -44.253906 93.609375 -37.078125 92.546875 -31.140625 C 90.648438 -20.703125 86.257812 -12.898438 79.375 -7.734375 C 72.488281 -2.578125 63.769531 0 53.21875 0 C 42.414062 0 33.363281 -2.488281 26.0625 -7.46875 C 18.769531 -12.457031 14.296875 -20.707031 12.640625 -32.21875 C 11.921875 -37.082031 11.53125 -42.597656 11.46875 -48.765625 C 11.414062 -54.929688 11.390625 -60.390625 11.390625 -65.140625 L 11.390625 -96.453125 C 11.390625 -105.953125 10.4375 -112.332031 8.53125 -115.59375 C 6.632812 -118.851562 3.789062 -120.363281 0 -120.125 L 0 -121.734375 L 39.6875 -121.734375 L 39.6875 -120.125 C 35.882812 -120.363281 33.035156 -118.851562 31.140625 -115.59375 C 29.242188 -112.332031 28.296875 -105.953125 28.296875 -96.453125 L 28.296875 -61.75 C 28.296875 -57.007812 28.351562 -52.351562 28.46875 -47.78125 C 28.59375 -43.21875 28.890625 -38.503906 29.359375 -33.640625 C 30.304688 -25.804688 33.003906 -19.304688 37.453125 -14.140625 C 41.910156 -8.984375 48.46875 -6.40625 57.125 -6.40625 C 64.125 -6.519531 70.351562 -8.359375 75.8125 -11.921875 C 81.269531 -15.484375 85.125 -20.585938 87.375 -27.234375 C 88.800781 -31.023438 89.75 -35.175781 90.21875 -39.6875 C 90.695312 -44.195312 90.9375 -48.820312 90.9375 -53.5625 L 90.9375 -96.453125 C 90.9375 -105.953125 89.988281 -112.332031 88.09375 -115.59375 C 86.195312 -118.851562 83.347656 -120.363281 79.546875 -120.125 L 79.546875 -121.734375 Z M 105.53125 -121.734375 "/></g></g></g><g fill="#2c4a3e" fill-opacity="1"><g transform="translate(1748.506269, 336.910605)"><g><path d="M 108.390625 -25.09375 L 108.390625 -112.125 L 69.046875 0 L 50.90625 0 L 14.59375 -104.296875 L 14.59375 -25.09375 C 14.59375 -15.71875 15.539062 -9.425781 17.4375 -6.21875 C 19.332031 -3.019531 22.179688 -1.484375 25.984375 -1.609375 L 25.984375 0 L 0 0 L 0 -1.609375 C 3.789062 -1.484375 6.632812 -3.019531 8.53125 -6.21875 C 10.4375 -9.425781 11.390625 -15.71875 11.390625 -25.09375 L 11.390625 -96.453125 C 11.390625 -105.953125 10.4375 -112.332031 8.53125 -115.59375 C 6.632812 -118.851562 3.789062 -120.363281 0 -120.125 L 0 -121.734375 L 26.515625 -121.734375 L 67.265625 -4.453125 L 108.390625 -121.734375 L 136.6875 -121.734375 L 136.6875 -120.125 C 132.882812 -120.363281 130.035156 -118.851562 128.140625 -115.59375 C 126.242188 -112.332031 125.296875 -105.953125 125.296875 -96.453125 L 125.296875 -25.09375 C 125.296875 -15.71875 126.242188 -9.425781 128.140625 -6.21875 C 130.035156 -3.019531 132.882812 -1.484375 136.6875 -1.609375 L 136.6875 0 L 97 0 L 97 -1.609375 C 100.789062 -1.484375 103.632812 -3.019531 105.53125 -6.21875 C 107.4375 -9.425781 108.390625 -15.71875 108.390625 -25.09375 Z M 108.390625 -25.09375 "/></g></g></g><g fill="#2c4a3e" fill-opacity="1"><g transform="translate(572.618686, 454.82019)"><g><path d="M 62.015625 -4.46875 C 61.210938 -2.875 60.101562 -1.726562 58.6875 -1.03125 C 57.269531 -0.34375 55.765625 0 54.171875 0 C 50.609375 0 47.914062 -1.070312 46.09375 -3.21875 C 44.28125 -5.363281 42.828125 -7.890625 41.734375 -10.796875 C 41.015625 -12.898438 40.363281 -15.1875 39.78125 -17.65625 C 39.195312 -20.125 38.6875 -22.628906 38.25 -25.171875 C 37.957031 -20.890625 37.046875 -16.820312 35.515625 -12.96875 C 33.992188 -9.113281 31.691406 -5.988281 28.609375 -3.59375 C 25.523438 -1.195312 21.398438 0 16.234375 0 C 11.515625 0 7.554688 -1.304688 4.359375 -3.921875 C 1.160156 -6.535156 -0.289062 -10.382812 0 -15.46875 C 0.21875 -18.738281 1.085938 -21.535156 2.609375 -23.859375 C 4.140625 -26.191406 6.046875 -28.25 8.328125 -30.03125 C 10.617188 -31.8125 13 -33.460938 15.46875 -34.984375 C 17.945312 -36.503906 20.21875 -38.097656 22.28125 -39.765625 C 24.351562 -41.441406 25.9375 -43.375 27.03125 -45.5625 C 28.625 -48.613281 29.019531 -51.117188 28.21875 -53.078125 C 27.425781 -55.035156 25.921875 -56.285156 23.703125 -56.828125 C 21.484375 -57.378906 18.992188 -57.035156 16.234375 -55.796875 C 13.691406 -54.640625 11.257812 -52.988281 8.9375 -50.84375 C 6.613281 -48.695312 4.832031 -46.789062 3.59375 -45.125 L 0.109375 -54.28125 C 3.304688 -55.800781 6.882812 -56.992188 10.84375 -57.859375 C 14.800781 -58.734375 18.890625 -59.171875 23.109375 -59.171875 C 28.484375 -59.171875 32.660156 -58.425781 35.640625 -56.9375 C 38.617188 -55.445312 40.867188 -53.140625 42.390625 -50.015625 C 43.921875 -46.898438 45.15625 -42.941406 46.09375 -38.140625 C 46.894531 -34.441406 47.625 -30.664062 48.28125 -26.8125 C 48.9375 -22.957031 49.71875 -19.34375 50.625 -15.96875 C 51.53125 -12.59375 52.75 -9.738281 54.28125 -7.40625 C 54.925781 -6.394531 55.921875 -5.488281 57.265625 -4.6875 C 58.609375 -3.882812 59.9375 -4.03125 61.25 -5.125 Z M 35.421875 -41.203125 C 34.910156 -43.160156 34.289062 -45.046875 33.5625 -46.859375 C 32.84375 -48.679688 31.9375 -50.28125 30.84375 -51.65625 C 31.28125 -49.84375 31.296875 -47.9375 30.890625 -45.9375 C 30.492188 -43.9375 29.859375 -42.175781 28.984375 -40.65625 C 27.828125 -38.539062 26.320312 -36.648438 24.46875 -34.984375 C 22.613281 -33.316406 20.703125 -31.679688 18.734375 -30.078125 C 16.773438 -28.484375 15.015625 -26.722656 13.453125 -24.796875 C 11.890625 -22.867188 10.820312 -20.597656 10.25 -17.984375 C 9.738281 -15.296875 9.972656 -12.734375 10.953125 -10.296875 C 11.929688 -7.859375 13.984375 -6.242188 17.109375 -5.453125 C 19.796875 -4.796875 22.300781 -4.972656 24.625 -5.984375 C 26.957031 -7.003906 28.957031 -8.515625 30.625 -10.515625 C 32.289062 -12.515625 33.523438 -14.640625 34.328125 -16.890625 C 35.566406 -20.453125 36.273438 -24.503906 36.453125 -29.046875 C 36.640625 -33.585938 36.296875 -37.640625 35.421875 -41.203125 Z M 35.421875 -41.203125 "/></g></g></g><g fill="#2c4a3e" fill-opacity="1"><g transform="translate(634.520642, 454.82019)"><g><path d="M 16.78125 -15.359375 C 16.78125 -9.617188 17.359375 -5.769531 18.515625 -3.8125 C 19.679688 -1.851562 21.429688 -0.910156 23.765625 -0.984375 L 23.765625 0 L 0 0 L 0 -0.984375 C 2.320312 -0.910156 4.0625 -1.851562 5.21875 -3.8125 C 6.382812 -5.769531 6.96875 -9.617188 6.96875 -15.359375 L 6.96875 -36.515625 C 6.96875 -42.328125 6.382812 -46.226562 5.21875 -48.21875 C 4.0625 -50.21875 2.320312 -51.144531 0 -51 L 0 -51.984375 C 3.195312 -51.984375 6.429688 -52.65625 9.703125 -54 C 12.972656 -55.34375 15.332031 -57.066406 16.78125 -59.171875 L 16.78125 -46.203125 C 18.3125 -48.390625 20.054688 -50.476562 22.015625 -52.46875 C 23.972656 -54.46875 26.148438 -56.082031 28.546875 -57.3125 C 30.953125 -58.550781 33.535156 -59.171875 36.296875 -59.171875 C 38.546875 -59.171875 40.722656 -58.71875 42.828125 -57.8125 C 44.929688 -56.90625 46.820312 -55.726562 48.5 -54.28125 L 45.015625 -45.125 C 43.921875 -46.789062 42.644531 -48.441406 41.1875 -50.078125 C 39.738281 -51.710938 38.175781 -53.019531 36.5 -54 C 34.832031 -54.976562 33.054688 -55.429688 31.171875 -55.359375 C 29.285156 -55.285156 27.320312 -54.414062 25.28125 -52.75 C 23.539062 -51.363281 21.941406 -49.726562 20.484375 -47.84375 C 19.035156 -45.957031 17.800781 -44.210938 16.78125 -42.609375 Z M 16.78125 -15.359375 "/></g></g></g><g fill="#2c4a3e" fill-opacity="1"><g transform="translate(686.069248, 454.82019)"><g><path d="M 0 -59.171875 C 1.882812 -59.171875 3.863281 -59.570312 5.9375 -60.375 C 8.007812 -61.175781 9.9375 -62.285156 11.71875 -63.703125 C 13.5 -65.117188 14.859375 -66.769531 15.796875 -68.65625 L 16.78125 -68.65625 L 16.78125 -59.171875 L 30.40625 -59.171875 L 30.40625 -57.21875 L 16.78125 -57.21875 L 16.78125 -13.40625 C 16.78125 -9.769531 17.414062 -7.296875 18.6875 -5.984375 C 19.957031 -4.679688 21.59375 -4.410156 23.59375 -5.171875 C 25.59375 -5.941406 27.609375 -7.523438 29.640625 -9.921875 L 30.40625 -9.265625 C 28.8125 -7.015625 26.957031 -4.90625 24.84375 -2.9375 C 22.738281 -0.976562 20.195312 0 17.21875 0 C 14.675781 0 12.660156 -0.671875 11.171875 -2.015625 C 9.679688 -3.359375 8.609375 -5.046875 7.953125 -7.078125 C 7.296875 -9.117188 6.96875 -11.226562 6.96875 -13.40625 L 6.96875 -57.21875 L 0 -57.21875 Z M 0 -59.171875 "/></g></g></g><g fill="#2c4a3e" fill-opacity="1"><g transform="translate(719.308872, 454.82019)"><g/></g></g><g fill="#2c4a3e" fill-opacity="1"><g transform="translate(751.240703, 454.82019)"><g><path d="M 16.78125 -15.359375 C 16.78125 -13.472656 16.941406 -11.476562 17.265625 -9.375 C 17.597656 -7.269531 18.34375 -5.507812 19.5 -4.09375 C 20.664062 -2.675781 22.484375 -1.96875 24.953125 -1.96875 C 28.804688 -1.96875 32.078125 -3.070312 34.765625 -5.28125 C 37.453125 -7.5 39.664062 -10.332031 41.40625 -13.78125 C 43.15625 -17.238281 44.445312 -20.851562 45.28125 -24.625 C 46.113281 -28.40625 46.566406 -31.859375 46.640625 -34.984375 C 46.640625 -37.453125 46.347656 -40.117188 45.765625 -42.984375 C 45.191406 -45.859375 44.140625 -48.40625 42.609375 -50.625 C 41.085938 -52.84375 38.875 -54.164062 35.96875 -54.59375 C 33.207031 -55.101562 30.644531 -54.773438 28.28125 -53.609375 C 25.914062 -52.453125 23.769531 -50.890625 21.84375 -48.921875 C 19.925781 -46.960938 18.238281 -44.929688 16.78125 -42.828125 Z M 0 0 L 0 -0.984375 C 2.394531 -0.910156 4.15625 -1.851562 5.28125 -3.8125 C 6.40625 -5.769531 6.96875 -9.617188 6.96875 -15.359375 L 6.96875 -59.171875 C 6.96875 -64.910156 6.40625 -68.78125 5.28125 -70.78125 C 4.15625 -72.78125 2.394531 -73.707031 0 -73.5625 L 0 -74.546875 C 3.269531 -74.546875 6.484375 -75.195312 9.640625 -76.5 C 12.804688 -77.8125 15.1875 -79.554688 16.78125 -81.734375 L 16.78125 -46.203125 C 19.394531 -49.835938 22.570312 -52.90625 26.3125 -55.40625 C 30.0625 -57.914062 34.222656 -59.171875 38.796875 -59.171875 C 42.722656 -59.171875 45.992188 -58.097656 48.609375 -55.953125 C 51.222656 -53.816406 53.203125 -50.984375 54.546875 -47.453125 C 55.890625 -43.929688 56.5625 -40.101562 56.5625 -35.96875 C 56.5625 -31.75 55.925781 -27.515625 54.65625 -23.265625 C 53.382812 -19.015625 51.476562 -15.128906 48.9375 -11.609375 C 46.394531 -8.085938 43.269531 -5.269531 39.5625 -3.15625 C 35.851562 -1.050781 31.566406 0 26.703125 0 Z M 0 0 "/></g></g></g><g fill="#2c4a3e" fill-opacity="1"><g transform="translate(808.020445, 454.82019)"><g><path d="M 17.109375 -53.078125 L 33.453125 -6.4375 L 47.625 -46.75 C 48.207031 -48.644531 48.242188 -50.390625 47.734375 -51.984375 C 47.585938 -52.421875 47.441406 -52.835938 47.296875 -53.234375 C 47.148438 -53.640625 47.003906 -54.023438 46.859375 -54.390625 C 46.347656 -55.984375 45.566406 -57.050781 44.515625 -57.59375 C 43.460938 -58.144531 42.101562 -58.347656 40.4375 -58.203125 L 40.4375 -59.171875 C 43.050781 -59.171875 46.097656 -59.171875 49.578125 -59.171875 C 53.066406 -59.171875 56.085938 -59.171875 58.640625 -59.171875 L 58.640625 -58.203125 C 55.367188 -58.421875 53.148438 -56.820312 51.984375 -53.40625 L 30.40625 8.390625 C 28.882812 12.609375 26.578125 16.023438 23.484375 18.640625 C 20.398438 21.253906 16.492188 22.5625 11.765625 22.5625 C 9.222656 22.5625 6.695312 22.160156 4.1875 21.359375 C 1.6875 20.554688 -0.539062 19.359375 -2.5 17.765625 L 0.984375 8.609375 C 2.285156 10.421875 3.695312 12.195312 5.21875 13.9375 C 6.75 15.6875 8.382812 17.125 10.125 18.25 C 11.875 19.375 13.726562 19.9375 15.6875 19.9375 C 17.65625 19.9375 19.765625 19.066406 22.015625 17.328125 C 24.921875 15.078125 27.097656 11.878906 28.546875 7.734375 L 31.28125 0 L 29.75 0 C 28.007812 0 26.71875 -0.34375 25.875 -1.03125 C 25.039062 -1.726562 24.335938 -2.875 23.765625 -4.46875 L 6.75 -53.078125 C 6.175781 -54.742188 5.378906 -56.050781 4.359375 -57 C 3.335938 -57.945312 1.882812 -58.347656 0 -58.203125 L 0 -59.171875 L 21.46875 -59.171875 L 21.46875 -58.203125 C 19.65625 -58.347656 18.3125 -58 17.4375 -57.15625 C 16.5625 -56.320312 16.453125 -54.960938 17.109375 -53.078125 Z M 17.109375 -53.078125 "/></g></g></g><g fill="#2c4a3e" fill-opacity="1"><g transform="translate(869.377502, 454.82019)"><g/></g></g><g fill="#2c4a3e" fill-opacity="1"><g transform="translate(901.309333, 454.82019)"><g><path d="M 62.015625 -4.46875 C 61.210938 -2.875 60.101562 -1.726562 58.6875 -1.03125 C 57.269531 -0.34375 55.765625 0 54.171875 0 C 50.609375 0 47.914062 -1.070312 46.09375 -3.21875 C 44.28125 -5.363281 42.828125 -7.890625 41.734375 -10.796875 C 41.015625 -12.898438 40.363281 -15.1875 39.78125 -17.65625 C 39.195312 -20.125 38.6875 -22.628906 38.25 -25.171875 C 37.957031 -20.890625 37.046875 -16.820312 35.515625 -12.96875 C 33.992188 -9.113281 31.691406 -5.988281 28.609375 -3.59375 C 25.523438 -1.195312 21.398438 0 16.234375 0 C 11.515625 0 7.554688 -1.304688 4.359375 -3.921875 C 1.160156 -6.535156 -0.289062 -10.382812 0 -15.46875 C 0.21875 -18.738281 1.085938 -21.535156 2.609375 -23.859375 C 4.140625 -26.191406 6.046875 -28.25 8.328125 -30.03125 C 10.617188 -31.8125 13 -33.460938 15.46875 -34.984375 C 17.945312 -36.503906 20.21875 -38.097656 22.28125 -39.765625 C 24.351562 -41.441406 25.9375 -43.375 27.03125 -45.5625 C 28.625 -48.613281 29.019531 -51.117188 28.21875 -53.078125 C 27.425781 -55.035156 25.921875 -56.285156 23.703125 -56.828125 C 21.484375 -57.378906 18.992188 -57.035156 16.234375 -55.796875 C 13.691406 -54.640625 11.257812 -52.988281 8.9375 -50.84375 C 6.613281 -48.695312 4.832031 -46.789062 3.59375 -45.125 L 0.109375 -54.28125 C 3.304688 -55.800781 6.882812 -56.992188 10.84375 -57.859375 C 14.800781 -58.734375 18.890625 -59.171875 23.109375 -59.171875 C 28.484375 -59.171875 32.660156 -58.425781 35.640625 -56.9375 C 38.617188 -55.445312 40.867188 -53.140625 42.390625 -50.015625 C 43.921875 -46.898438 45.15625 -42.941406 46.09375 -38.140625 C 46.894531 -34.441406 47.625 -30.664062 48.28125 -26.8125 C 48.9375 -22.957031 49.71875 -19.34375 50.625 -15.96875 C 51.53125 -12.59375 52.75 -9.738281 54.28125 -7.40625 C 54.925781 -6.394531 55.921875 -5.488281 57.265625 -4.6875 C 58.609375 -3.882812 59.9375 -4.03125 61.25 -5.125 Z M 35.421875 -41.203125 C 34.910156 -43.160156 34.289062 -45.046875 33.5625 -46.859375 C 32.84375 -48.679688 31.9375 -50.28125 30.84375 -51.65625 C 31.28125 -49.84375 31.296875 -47.9375 30.890625 -45.9375 C 30.492188 -43.9375 29.859375 -42.175781 28.984375 -40.65625 C 27.828125 -38.539062 26.320312 -36.648438 24.46875 -34.984375 C 22.613281 -33.316406 20.703125 -31.679688 18.734375 -30.078125 C 16.773438 -28.484375 15.015625 -26.722656 13.453125 -24.796875 C 11.890625 -22.867188 10.820312 -20.597656 10.25 -17.984375 C 9.738281 -15.296875 9.972656 -12.734375 10.953125 -10.296875 C 11.929688 -7.859375 13.984375 -6.242188 17.109375 -5.453125 C 19.796875 -4.796875 22.300781 -4.972656 24.625 -5.984375 C 26.957031 -7.003906 28.957031 -8.515625 30.625 -10.515625 C 32.289062 -12.515625 33.523438 -14.640625 34.328125 -16.890625 C 35.566406 -20.453125 36.273438 -24.503906 36.453125 -29.046875 C 36.640625 -33.585938 36.296875 -37.640625 35.421875 -41.203125 Z M 35.421875 -41.203125 "/></g></g></g><g fill="#2c4a3e" fill-opacity="1"><g transform="translate(959.832776, 454.82019)"><g><path d="M 31.0625 -59.171875 C 36.144531 -59.171875 40.484375 -57.972656 44.078125 -55.578125 C 47.679688 -53.179688 50.441406 -50.128906 52.359375 -46.421875 C 54.285156 -42.722656 55.210938 -38.910156 55.140625 -34.984375 C 47.734375 -34.984375 40.25 -34.984375 32.6875 -34.984375 C 25.132812 -34.984375 17.65625 -34.984375 10.25 -34.984375 C 10.320312 -33.671875 10.429688 -32.359375 10.578125 -31.046875 C 10.722656 -29.742188 10.9375 -28.40625 11.21875 -27.03125 C 12.238281 -22.882812 13.960938 -18.992188 16.390625 -15.359375 C 18.828125 -11.734375 21.898438 -8.882812 25.609375 -6.8125 C 29.316406 -4.738281 33.492188 -3.957031 38.140625 -4.46875 C 42.503906 -4.976562 46.59375 -6.773438 50.40625 -9.859375 C 54.21875 -12.953125 57.035156 -17.148438 58.859375 -22.453125 L 59.828125 -22.453125 C 58.742188 -18.160156 56.820312 -14.328125 54.0625 -10.953125 C 51.300781 -7.578125 47.9375 -4.90625 43.96875 -2.9375 C 40.007812 -0.976562 35.707031 0 31.0625 0 C 26.988281 0 23.171875 -0.757812 19.609375 -2.28125 C 16.054688 -3.8125 12.914062 -5.921875 10.1875 -8.609375 C 7.46875 -11.296875 5.34375 -14.4375 3.8125 -18.03125 C 2.289062 -21.632812 1.53125 -25.46875 1.53125 -29.53125 C 1.53125 -33.601562 2.289062 -37.4375 3.8125 -41.03125 C 5.34375 -44.625 7.46875 -47.78125 10.1875 -50.5 C 12.914062 -53.226562 16.054688 -55.351562 19.609375 -56.875 C 23.171875 -58.40625 26.988281 -59.171875 31.0625 -59.171875 Z M 45.34375 -36.953125 C 44.832031 -41.890625 43.320312 -45.9375 40.8125 -49.09375 C 38.3125 -52.257812 35.351562 -54.421875 31.9375 -55.578125 C 28.519531 -56.742188 25.175781 -56.742188 21.90625 -55.578125 C 18.488281 -54.421875 15.765625 -52.132812 13.734375 -48.71875 C 11.703125 -45.300781 10.578125 -41.378906 10.359375 -36.953125 Z M 45.34375 -36.953125 "/></g></g></g><g fill="#2c4a3e" fill-opacity="1"><g transform="translate(1020.64491, 454.82019)"><g><path d="M 2.5 -23.875 C 3.519531 -19.945312 5.300781 -16.3125 7.84375 -12.96875 C 10.382812 -9.625 13.414062 -6.953125 16.9375 -4.953125 C 20.46875 -2.960938 24.234375 -1.96875 28.234375 -1.96875 C 30.265625 -2.039062 32.40625 -2.328125 34.65625 -2.828125 C 36.90625 -3.335938 38.957031 -4.207031 40.8125 -5.4375 C 42.664062 -6.675781 43.992188 -8.390625 44.796875 -10.578125 C 45.585938 -12.679688 45.507812 -14.765625 44.5625 -16.828125 C 43.625 -18.898438 41.992188 -20.628906 39.671875 -22.015625 C 37.492188 -23.253906 34.929688 -24.21875 31.984375 -24.90625 C 29.046875 -25.59375 26.015625 -26.265625 22.890625 -26.921875 C 19.765625 -27.578125 16.75 -28.410156 13.84375 -29.421875 C 11.8125 -30.148438 9.847656 -31.054688 7.953125 -32.140625 C 6.066406 -33.234375 4.523438 -34.648438 3.328125 -36.390625 C 2.128906 -38.140625 1.53125 -40.359375 1.53125 -43.046875 C 1.53125 -45.515625 2.273438 -47.710938 3.765625 -49.640625 C 5.253906 -51.566406 7.066406 -53.179688 9.203125 -54.484375 C 11.347656 -55.796875 13.4375 -56.78125 15.46875 -57.4375 C 17.4375 -58.019531 19.472656 -58.453125 21.578125 -58.734375 C 23.679688 -59.023438 25.828125 -59.171875 28.015625 -59.171875 C 31.929688 -59.171875 35.78125 -58.753906 39.5625 -57.921875 C 43.34375 -57.085938 46.722656 -55.875 49.703125 -54.28125 L 46.203125 -45.125 C 45.410156 -46.570312 44.285156 -48.164062 42.828125 -49.90625 C 41.378906 -51.65625 39.546875 -53.21875 37.328125 -54.59375 C 35.109375 -55.976562 32.4375 -56.816406 29.3125 -57.109375 C 27.207031 -57.328125 24.789062 -57.269531 22.0625 -56.9375 C 19.34375 -56.613281 17.039062 -55.832031 15.15625 -54.59375 C 13.1875 -53.4375 11.675781 -51.96875 10.625 -50.1875 C 9.570312 -48.40625 9.300781 -46.566406 9.8125 -44.671875 C 10.320312 -42.785156 11.921875 -41.15625 14.609375 -39.78125 C 17.003906 -38.539062 19.691406 -37.59375 22.671875 -36.9375 C 25.648438 -36.289062 28.664062 -35.65625 31.71875 -35.03125 C 34.769531 -34.414062 37.65625 -33.597656 40.375 -32.578125 C 43.101562 -31.566406 45.410156 -30.082031 47.296875 -28.125 C 48.972656 -26.445312 50.117188 -24.375 50.734375 -21.90625 C 51.347656 -19.4375 51.4375 -16.929688 51 -14.390625 C 50.5625 -11.847656 49.617188 -9.628906 48.171875 -7.734375 C 45.992188 -4.828125 42.992188 -2.8125 39.171875 -1.6875 C 35.359375 -0.5625 31.601562 0 27.90625 0 C 22.882812 0 18.140625 -0.742188 13.671875 -2.234375 C 9.203125 -3.722656 5.15625 -5.992188 1.53125 -9.046875 L 1.53125 -23.875 Z M 2.5 -23.875 "/></g></g></g><g fill="#2c4a3e" fill-opacity="1"><g transform="translate(1075.35399, 454.82019)"><g><path d="M 0 -59.171875 C 1.882812 -59.171875 3.863281 -59.570312 5.9375 -60.375 C 8.007812 -61.175781 9.9375 -62.285156 11.71875 -63.703125 C 13.5 -65.117188 14.859375 -66.769531 15.796875 -68.65625 L 16.78125 -68.65625 L 16.78125 -59.171875 L 30.40625 -59.171875 L 30.40625 -57.21875 L 16.78125 -57.21875 L 16.78125 -13.40625 C 16.78125 -9.769531 17.414062 -7.296875 18.6875 -5.984375 C 19.957031 -4.679688 21.59375 -4.410156 23.59375 -5.171875 C 25.59375 -5.941406 27.609375 -7.523438 29.640625 -9.921875 L 30.40625 -9.265625 C 28.8125 -7.015625 26.957031 -4.90625 24.84375 -2.9375 C 22.738281 -0.976562 20.195312 0 17.21875 0 C 14.675781 0 12.660156 -0.671875 11.171875 -2.015625 C 9.679688 -3.359375 8.609375 -5.046875 7.953125 -7.078125 C 7.296875 -9.117188 6.96875 -11.226562 6.96875 -13.40625 L 6.96875 -57.21875 L 0 -57.21875 Z M 0 -59.171875 "/></g></g></g><g fill="#2c4a3e" fill-opacity="1"><g transform="translate(1104.452253, 454.82019)"><g><path d="M 68 -4.46875 C 67.207031 -2.875 66.082031 -1.726562 64.625 -1.03125 C 63.175781 -0.34375 61.648438 0 60.046875 0 C 56.554688 0 53.882812 -1.070312 52.03125 -3.21875 C 50.1875 -5.363281 48.71875 -7.890625 47.625 -10.796875 C 46.394531 -14.128906 45.429688 -17.8125 44.734375 -21.84375 C 44.046875 -25.882812 43.390625 -29.921875 42.765625 -33.953125 C 42.148438 -37.984375 41.375 -41.632812 40.4375 -44.90625 C 38.832031 -50.71875 36.359375 -53.800781 33.015625 -54.15625 C 29.679688 -54.519531 26.050781 -52.78125 22.125 -48.9375 C 21.101562 -47.988281 20.140625 -46.953125 19.234375 -45.828125 C 18.328125 -44.703125 17.507812 -43.628906 16.78125 -42.609375 L 16.78125 -15.359375 C 16.78125 -9.617188 17.359375 -5.769531 18.515625 -3.8125 C 19.679688 -1.851562 21.429688 -0.910156 23.765625 -0.984375 L 23.765625 0 L 0 0 L 0 -0.984375 C 2.320312 -0.910156 4.0625 -1.851562 5.21875 -3.8125 C 6.382812 -5.769531 6.96875 -9.617188 6.96875 -15.359375 L 6.96875 -59.171875 C 6.96875 -64.984375 6.382812 -68.867188 5.21875 -70.828125 C 4.0625 -72.796875 2.320312 -73.707031 0 -73.5625 L 0 -74.546875 C 3.195312 -74.546875 6.429688 -75.21875 9.703125 -76.5625 C 12.972656 -77.90625 15.332031 -79.628906 16.78125 -81.734375 L 16.78125 -46.09375 C 18.457031 -48.28125 20.273438 -50.367188 22.234375 -52.359375 C 24.191406 -54.359375 26.351562 -55.992188 28.71875 -57.265625 C 31.082031 -58.535156 33.679688 -59.171875 36.515625 -59.171875 C 39.492188 -59.171875 41.890625 -58.5 43.703125 -57.15625 C 45.515625 -55.8125 46.945312 -54.085938 48 -51.984375 C 49.0625 -49.878906 49.878906 -47.59375 50.453125 -45.125 C 51.035156 -42.65625 51.546875 -40.328125 51.984375 -38.140625 C 52.785156 -34.441406 53.507812 -30.664062 54.15625 -26.8125 C 54.8125 -22.957031 55.59375 -19.34375 56.5 -15.96875 C 57.414062 -12.59375 58.632812 -9.738281 60.15625 -7.40625 C 60.882812 -6.394531 61.898438 -5.488281 63.203125 -4.6875 C 64.515625 -3.882812 65.863281 -4.03125 67.25 -5.125 Z M 68 -4.46875 "/></g></g></g><g fill="#2c4a3e" fill-opacity="1"><g transform="translate(1167.443939, 454.82019)"><g><path d="M 31.0625 -59.171875 C 36.144531 -59.171875 40.484375 -57.972656 44.078125 -55.578125 C 47.679688 -53.179688 50.441406 -50.128906 52.359375 -46.421875 C 54.285156 -42.722656 55.210938 -38.910156 55.140625 -34.984375 C 47.734375 -34.984375 40.25 -34.984375 32.6875 -34.984375 C 25.132812 -34.984375 17.65625 -34.984375 10.25 -34.984375 C 10.320312 -33.671875 10.429688 -32.359375 10.578125 -31.046875 C 10.722656 -29.742188 10.9375 -28.40625 11.21875 -27.03125 C 12.238281 -22.882812 13.960938 -18.992188 16.390625 -15.359375 C 18.828125 -11.734375 21.898438 -8.882812 25.609375 -6.8125 C 29.316406 -4.738281 33.492188 -3.957031 38.140625 -4.46875 C 42.503906 -4.976562 46.59375 -6.773438 50.40625 -9.859375 C 54.21875 -12.953125 57.035156 -17.148438 58.859375 -22.453125 L 59.828125 -22.453125 C 58.742188 -18.160156 56.820312 -14.328125 54.0625 -10.953125 C 51.300781 -7.578125 47.9375 -4.90625 43.96875 -2.9375 C 40.007812 -0.976562 35.707031 0 31.0625 0 C 26.988281 0 23.171875 -0.757812 19.609375 -2.28125 C 16.054688 -3.8125 12.914062 -5.921875 10.1875 -8.609375 C 7.46875 -11.296875 5.34375 -14.4375 3.8125 -18.03125 C 2.289062 -21.632812 1.53125 -25.46875 1.53125 -29.53125 C 1.53125 -33.601562 2.289062 -37.4375 3.8125 -41.03125 C 5.34375 -44.625 7.46875 -47.78125 10.1875 -50.5 C 12.914062 -53.226562 16.054688 -55.351562 19.609375 -56.875 C 23.171875 -58.40625 26.988281 -59.171875 31.0625 -59.171875 Z M 45.34375 -36.953125 C 44.832031 -41.890625 43.320312 -45.9375 40.8125 -49.09375 C 38.3125 -52.257812 35.351562 -54.421875 31.9375 -55.578125 C 28.519531 -56.742188 25.175781 -56.742188 21.90625 -55.578125 C 18.488281 -54.421875 15.765625 -52.132812 13.734375 -48.71875 C 11.703125 -45.300781 10.578125 -41.378906 10.359375 -36.953125 Z M 45.34375 -36.953125 "/></g></g></g><g fill="#2c4a3e" fill-opacity="1"><g transform="translate(1225.640465, 454.82019)"><g><path d="M 0 -59.171875 C 1.882812 -59.171875 3.863281 -59.570312 5.9375 -60.375 C 8.007812 -61.175781 9.9375 -62.285156 11.71875 -63.703125 C 13.5 -65.117188 14.859375 -66.769531 15.796875 -68.65625 L 16.78125 -68.65625 L 16.78125 -59.171875 L 30.40625 -59.171875 L 30.40625 -57.21875 L 16.78125 -57.21875 L 16.78125 -13.40625 C 16.78125 -9.769531 17.414062 -7.296875 18.6875 -5.984375 C 19.957031 -4.679688 21.59375 -4.410156 23.59375 -5.171875 C 25.59375 -5.941406 27.609375 -7.523438 29.640625 -9.921875 L 30.40625 -9.265625 C 28.8125 -7.015625 26.957031 -4.90625 24.84375 -2.9375 C 22.738281 -0.976562 20.195312 0 17.21875 0 C 14.675781 0 12.660156 -0.671875 11.171875 -2.015625 C 9.679688 -3.359375 8.609375 -5.046875 7.953125 -7.078125 C 7.296875 -9.117188 6.96875 -11.226562 6.96875 -13.40625 L 6.96875 -57.21875 L 0 -57.21875 Z M 0 -59.171875 "/></g></g></g><g fill="#2c4a3e" fill-opacity="1"><g transform="translate(1258.117195, 454.82019)"><g><path d="M 16.78125 -15.359375 C 16.78125 -9.617188 17.359375 -5.769531 18.515625 -3.8125 C 19.679688 -1.851562 21.429688 -0.910156 23.765625 -0.984375 L 23.765625 0 L 0 0 L 0 -0.984375 C 2.320312 -0.910156 4.0625 -1.851562 5.21875 -3.8125 C 6.382812 -5.769531 6.96875 -9.617188 6.96875 -15.359375 L 6.96875 -36.515625 C 6.96875 -42.328125 6.382812 -46.226562 5.21875 -48.21875 C 4.0625 -50.21875 2.320312 -51.144531 0 -51 L 0 -51.984375 C 3.195312 -51.984375 6.429688 -52.65625 9.703125 -54 C 12.972656 -55.34375 15.332031 -57.066406 16.78125 -59.171875 Z M 11.875 -74.546875 C 13.84375 -74.546875 15.535156 -73.851562 16.953125 -72.46875 C 18.367188 -71.09375 19.078125 -69.425781 19.078125 -67.46875 C 19.078125 -65.425781 18.367188 -63.710938 16.953125 -62.328125 C 15.535156 -60.953125 13.84375 -60.265625 11.875 -60.265625 C 9.914062 -60.265625 8.226562 -60.953125 6.8125 -62.328125 C 5.394531 -63.710938 4.6875 -65.425781 4.6875 -67.46875 C 4.6875 -69.425781 5.394531 -71.09375 6.8125 -72.46875 C 8.226562 -73.851562 9.914062 -74.546875 11.875 -74.546875 Z M 11.875 -74.546875 "/></g></g></g><g fill="#2c4a3e" fill-opacity="1"><g transform="translate(1283.837037, 454.82019)"><g><path d="M 51.546875 -54.28125 L 47.84375 -45.5625 C 43.769531 -50.425781 39.609375 -53.726562 35.359375 -55.46875 C 31.109375 -57.21875 26.660156 -57.253906 22.015625 -55.578125 C 18.890625 -54.492188 16.363281 -52.515625 14.4375 -49.640625 C 12.507812 -46.773438 11.253906 -43.378906 10.671875 -39.453125 C 10.097656 -35.523438 10.316406 -31.382812 11.328125 -27.03125 C 12.347656 -22.882812 14.070312 -18.992188 16.5 -15.359375 C 18.9375 -11.734375 22.007812 -8.882812 25.71875 -6.8125 C 29.425781 -4.738281 33.601562 -3.957031 38.25 -4.46875 C 42.613281 -4.976562 46.703125 -6.773438 50.515625 -9.859375 C 54.328125 -12.953125 57.140625 -17.148438 58.953125 -22.453125 L 59.9375 -22.453125 C 58.851562 -18.160156 56.929688 -14.328125 54.171875 -10.953125 C 51.410156 -7.578125 48.046875 -4.90625 44.078125 -2.9375 C 40.117188 -0.976562 35.816406 0 31.171875 0 C 27.609375 0 24.191406 -0.613281 20.921875 -1.84375 C 17.648438 -3.082031 14.742188 -4.789062 12.203125 -6.96875 C 9.003906 -9.65625 6.441406 -12.960938 4.515625 -16.890625 C 2.597656 -20.816406 1.640625 -25.03125 1.640625 -29.53125 C 1.640625 -33.601562 2.4375 -37.4375 4.03125 -41.03125 C 5.632812 -44.625 7.851562 -47.78125 10.6875 -50.5 C 13.519531 -53.226562 16.75 -55.351562 20.375 -56.875 C 24.007812 -58.40625 27.828125 -59.171875 31.828125 -59.171875 C 38.578125 -59.171875 45.148438 -57.539062 51.546875 -54.28125 Z M 51.546875 -54.28125 "/></g></g></g></svg>